<svg xmlns="http://www.w3.org/2000/svg" width="213" height="117" viewBox="0 0 213 117">
  <g id="advanced" transform="translate(-854 -1429)">
    <ellipse id="Ellipse_194" data-name="Ellipse 194" cx="106.5" cy="18" rx="106.5" ry="18" transform="translate(854 1510)" fill="#6c63ff" opacity="0.1"/>
    <g id="training" transform="translate(902.763 1400.68)">
      <g id="Group_86" data-name="Group 86" transform="translate(1.672 29.995)">
        <circle id="Ellipse_191" data-name="Ellipse 191" cx="8.992" cy="8.992" r="8.992" transform="translate(14.952 62.61)" fill="#ffcebe"/>
        <path id="Path_357" data-name="Path 357" d="M67.958,397.4H52.249a7.892,7.892,0,0,0-7.869,7.869v7.609a2.086,2.086,0,0,0,2.085,2.085H73.741a2.086,2.086,0,0,0,2.085-2.085v-7.609A7.891,7.891,0,0,0,67.958,397.4Z" transform="translate(-36.159 -316.805)" fill="#ff8030"/>
        <circle id="Ellipse_192" data-name="Ellipse 192" cx="8.992" cy="8.992" r="8.992" transform="translate(46.399 62.61)" fill="#ffcebe"/>
        <path id="Path_358" data-name="Path 358" d="M209.038,397.4H193.328a7.892,7.892,0,0,0-7.868,7.869v7.609a2.086,2.086,0,0,0,2.085,2.085h27.276a2.086,2.086,0,0,0,2.085-2.085v-7.609A7.892,7.892,0,0,0,209.038,397.4Z" transform="translate(-145.792 -316.805)" fill="#ff8030"/>
        <circle id="Ellipse_193" data-name="Ellipse 193" cx="8.992" cy="8.992" r="8.992" transform="translate(77.846 62.61)" fill="#ffcebe"/>
        <g id="Group_85" data-name="Group 85" transform="translate(14.952 62.61)">
          <path id="Path_359" data-name="Path 359" d="M82.846,325.712a8.989,8.989,0,0,1,4.859-7.985,8.992,8.992,0,1,0,0,15.97A8.988,8.988,0,0,1,82.846,325.712Z" transform="translate(-74.581 -316.72)" fill="#ffb1a0"/>
          <path id="Path_360" data-name="Path 360" d="M223.924,325.712a8.989,8.989,0,0,1,4.859-7.985,8.992,8.992,0,1,0,0,15.97A8.988,8.988,0,0,1,223.924,325.712Z" transform="translate(-184.212 -316.72)" fill="#ffb1a0"/>
          <path id="Path_361" data-name="Path 361" d="M365,325.712a8.989,8.989,0,0,1,4.859-7.985,8.992,8.992,0,1,0,0,15.97A8.988,8.988,0,0,1,365,325.712Z" transform="translate(-293.846 -316.72)" fill="#ffb1a0"/>
        </g>
        <path id="Path_362" data-name="Path 362" d="M350.116,397.4h-15.71a7.892,7.892,0,0,0-7.868,7.869v7.609a2.086,2.086,0,0,0,2.085,2.085H355.9a2.086,2.086,0,0,0,2.085-2.085v-7.609A7.891,7.891,0,0,0,350.116,397.4Z" transform="translate(-255.424 -316.805)" fill="#ff8030"/>
        <path id="Path_363" data-name="Path 363" d="M56.974,412.876v-7.609a7.892,7.892,0,0,1,7.869-7.869H52.249a7.892,7.892,0,0,0-7.869,7.869v7.609a2.086,2.086,0,0,0,2.085,2.085H59.059A2.086,2.086,0,0,1,56.974,412.876Z" transform="translate(-36.159 -316.805)" fill="#ff8030"/>
        <path id="Path_364" data-name="Path 364" d="M198.053,412.876v-7.609a7.892,7.892,0,0,1,7.868-7.869H193.327a7.892,7.892,0,0,0-7.868,7.869v7.609a2.086,2.086,0,0,0,2.085,2.085h12.594A2.086,2.086,0,0,1,198.053,412.876Z" transform="translate(-145.792 -316.805)" fill="#ff8030"/>
        <path id="Path_365" data-name="Path 365" d="M339.132,412.876v-7.609A7.892,7.892,0,0,1,347,397.4H334.407a7.892,7.892,0,0,0-7.869,7.869v7.609a2.086,2.086,0,0,0,2.085,2.085h12.594A2.086,2.086,0,0,1,339.132,412.876Z" transform="translate(-255.424 -316.805)" fill="#ff8030"/>
        <path id="Path_366" data-name="Path 366" d="M37.5,65.835h97.407v55.923H37.5Z" transform="translate(-30.813 -59.148)" fill="#5b448a"/>
        <path id="Path_370" data-name="Path 370" d="M245.607,165.084l-9.036-5.443a1.66,1.66,0,0,0-2.516,1.422v10.886a1.66,1.66,0,0,0,2.516,1.422l9.036-5.443A1.66,1.66,0,0,0,245.607,165.084Z" transform="translate(-183.555 -131.858)" fill="#ff8030"/>
      </g>
      <g id="Group_87" data-name="Group 87" transform="translate(0 28.32)">
        <path id="Path_371" data-name="Path 371" d="M226.554,155.217V166.1a3.336,3.336,0,0,0,5.051,2.854l9.037-5.443a3.331,3.331,0,0,0,0-5.708l-9.037-5.443A3.335,3.335,0,0,0,226.554,155.217ZM238.9,160.66l-9,5.422V155.238Z" transform="translate(-176.055 -124.34)" fill="#fff"/>
        <path id="Path_372" data-name="Path 372" d="M199.062,114.685a1.672,1.672,0,0,0-.825,3.24,14.226,14.226,0,1,1-6.976,0,1.672,1.672,0,1,0-.825-3.24,17.569,17.569,0,1,0,8.627,0Z" transform="translate(-137.686 -95.394)" fill="#fff"/>
        <path id="Path_373" data-name="Path 373" d="M106.478,28.32H7.647A7.655,7.655,0,0,0,0,35.967V93.314a7.655,7.655,0,0,0,7.647,7.647h7.326a10.613,10.613,0,0,0,2.9,7.953h-.111a9.551,9.551,0,0,0-9.54,9.54v7.609a3.761,3.761,0,0,0,3.757,3.757H39.254a3.733,3.733,0,0,0,2.085-.634,3.734,3.734,0,0,0,2.085.634H70.7a3.734,3.734,0,0,0,2.085-.634,3.734,3.734,0,0,0,2.085.634h27.276a3.761,3.761,0,0,0,3.757-3.757v-7.609a9.551,9.551,0,0,0-9.54-9.54h-.111a10.613,10.613,0,0,0,2.9-7.953h7.326a7.655,7.655,0,0,0,7.647-7.647V68.541a1.672,1.672,0,0,0-3.344,0V93.314a4.308,4.308,0,0,1-4.3,4.3H98.4a10.674,10.674,0,0,0-2.143-3.344h9.5a1.672,1.672,0,0,0,1.672-1.672V36.679a1.672,1.672,0,0,0-1.672-1.672H8.359a1.672,1.672,0,0,0-1.672,1.672V92.6a1.672,1.672,0,0,0,1.672,1.672h9.5a10.62,10.62,0,0,0-2.143,3.344H7.647a4.308,4.308,0,0,1-4.3-4.3V35.967a4.308,4.308,0,0,1,4.3-4.3h98.832a4.308,4.308,0,0,1,4.3,4.3V60.739a1.672,1.672,0,0,0,3.344,0V35.967A7.655,7.655,0,0,0,106.478,28.32ZM39.667,126.063a.414.414,0,0,1-.413.414H11.978a.414.414,0,0,1-.414-.414v-7.609a6.2,6.2,0,0,1,6.2-6.2h15.71a6.2,6.2,0,0,1,6.2,6.2v7.609ZM18.3,101.593a7.32,7.32,0,1,1,7.32,7.32,7.327,7.327,0,0,1-7.32-7.32Zm23.043,11.473a9.536,9.536,0,0,0-7.868-4.154h-.111a10.613,10.613,0,0,0,2.9-7.953H46.419a10.613,10.613,0,0,0,2.9,7.953h-.111A9.536,9.536,0,0,0,41.339,113.066Zm-7.97-18.793H49.309a10.676,10.676,0,0,0-2.143,3.344H35.512A10.62,10.62,0,0,0,33.369,94.273Zm37.745,31.789a.414.414,0,0,1-.414.414H43.425a.414.414,0,0,1-.414-.414v-7.609a6.2,6.2,0,0,1,6.2-6.2h15.71a6.2,6.2,0,0,1,6.2,6.2v7.609Zm-21.372-24.47a7.32,7.32,0,1,1,7.32,7.32A7.328,7.328,0,0,1,49.742,101.593Zm23.043,11.473a9.537,9.537,0,0,0-7.869-4.154h-.111a10.613,10.613,0,0,0,2.9-7.953H77.866a10.613,10.613,0,0,0,2.9,7.953h-.111a9.536,9.536,0,0,0-7.869,4.154Zm-7.97-18.793H80.756a10.681,10.681,0,0,0-2.143,3.344H66.959A10.611,10.611,0,0,0,64.816,94.273Zm31.548,17.983a6.2,6.2,0,0,1,6.2,6.2v7.609a.414.414,0,0,1-.414.414H74.872a.414.414,0,0,1-.414-.414v-7.609a6.2,6.2,0,0,1,6.2-6.2ZM81.189,101.593a7.32,7.32,0,1,1,7.32,7.32A7.328,7.328,0,0,1,81.189,101.593ZM10.031,90.93V38.351h94.064V90.93Z" transform="translate(0 -28.32)" fill="#5b448a"/>
      </g>
    </g>
  </g>
</svg>
