<svg xmlns="http://www.w3.org/2000/svg" width="32" height="32" viewBox="0 0 32 32">
  <g id="dollar" transform="translate(0)">
    <path id="Path_394" data-name="Path 394" d="M152.813,245.75a.939.939,0,0,1,.938.938.938.938,0,0,0,1.875,0,2.817,2.817,0,0,0-1.875-2.651v-1.1a.938.938,0,0,0-1.875,0v1.1a2.812,2.812,0,0,0,.938,5.464.937.937,0,1,1-.937.937.938.938,0,0,0-1.875,0,2.817,2.817,0,0,0,1.875,2.651v1.1a.938.938,0,0,0,1.875,0v-1.1a2.812,2.812,0,0,0-.937-5.464.937.937,0,1,1,0-1.875Z" transform="translate(-140.625 -226.875)" fill="#fff"/>
    <path id="Path_395" data-name="Path 395" d="M31.063,22.625H23.751c-1.029-3.518-3.153-5.631-5.04-7.509-1.845-1.836-3.344-3.33-3.652-5.741h.879a.937.937,0,0,0,0-1.875h-.851c.531-2.992,3.342-5.852,3.389-5.9h0A.938.938,0,0,0,17.812,0,5.387,5.387,0,0,0,14.48,1.095a3.545,3.545,0,0,1-2.292.78A3.545,3.545,0,0,1,9.9,1.095,5.387,5.387,0,0,0,6.563,0,.939.939,0,0,0,5.9,1.6h0c.047.047,2.859,2.908,3.389,5.9H8.438a.937.937,0,1,0,0,1.875h.878c-.307,2.405-1.8,3.893-3.644,5.721a21.751,21.751,0,0,0-3.808,4.6A14.912,14.912,0,0,0,0,27.312c0,.062,0,.124,0,.185A4.655,4.655,0,0,0,4.691,32H31.063A.938.938,0,0,0,32,31.062v-7.5A.938.938,0,0,0,31.063,22.625Zm-.937,3.75h-9.5V24.5h9.5ZM12.188,3.75a5.138,5.138,0,0,0,2.824-.768A11.508,11.508,0,0,0,13.19,7.5H11.185A11.507,11.507,0,0,0,9.363,2.982a5.139,5.139,0,0,0,2.824.768ZM1.876,27.467q0-.077,0-.155c0-5.8,2.6-8.387,5.118-10.886,1.912-1.9,3.883-3.858,4.209-7.051h1.971c.326,3.2,2.3,5.164,4.215,7.07a15.848,15.848,0,0,1,4.395,6.18h-2.1a.938.938,0,0,0-.937.938v6.562H4.691A2.772,2.772,0,0,1,1.876,27.467Zm28.249,2.658h-9.5V28.25h9.5Z" transform="translate(0)" fill="#fff"/>
  </g>
</svg>
