<svg id="Component_2_1" data-name="Component 2 – 1" xmlns="http://www.w3.org/2000/svg" xmlns:xlink="http://www.w3.org/1999/xlink" width="412.947" height="287.937" viewBox="0 0 412.947 287.937">
  <defs>
    <linearGradient id="linear-gradient" x1="0.5" y1="1" x2="0.5" gradientUnits="objectBoundingBox">
      <stop offset="0" stop-color="gray" stop-opacity="0.251"/>
      <stop offset="0.54" stop-color="gray" stop-opacity="0.122"/>
      <stop offset="1" stop-color="gray" stop-opacity="0.102"/>
    </linearGradient>
  </defs>
  <path id="Path_283" data-name="Path 283" d="M276.022,102.18c-26.464-.919-51.669-9.464-75.74-18.811s-47.911-19.7-73.745-24.656c-16.612-3.188-35.614-3.638-49,5.27-12.883,8.571-17.044,23.368-19.284,37.1-1.684,10.332-2.672,21.2,1.94,30.874,3.2,6.712,8.89,12.356,12.809,18.786,13.684,22.38,4.026,49.971-10.818,71.824C55.228,232.814,47.155,242.593,41.79,253.5s-7.839,23.412-3.122,34.56c4.655,11.031,15.737,19.317,27.767,25.147,24.389,11.818,53.152,15.207,81.2,17.124,62.085,4.245,124.5,2.408,186.753.567,23.035-.684,46.176-1.372,68.837-4.937,12.586-1.976,25.578-5.124,34.717-12.7,11.6-9.622,14.475-25.915,6.7-37.982-13.036-20.239-49.082-25.253-58.191-46.985-5.018-11.953.135-25.271,7.426-36.357,15.635-23.789,41.843-44.65,43.223-71.839.952-18.665-11.649-37.374-31.13-46.209-20.422-9.259-48.734-8.1-63.8,7.235C326.652,96.918,299.39,102.989,276.022,102.18Z" transform="translate(-36.047 -56.625)" fill="#6c63ff" opacity="0.1"/>
  <path id="Path_322" data-name="Path 322" d="M267.81,317.87V479.528a5.643,5.643,0,0,0,5.643,5.643H505.438a5.643,5.643,0,0,0,5.643-5.643V317.87Z" transform="translate(-182.913 -222.259)" fill="#fff"/>
  <rect id="Rectangle_428" data-name="Rectangle 428" width="58.155" height="34.135" rx="8.65" transform="translate(104.147 110.082)" opacity="0.1"/>
  <rect id="Rectangle_429" data-name="Rectangle 429" width="58.155" height="34.135" rx="8.65" transform="translate(177.457 110.082)" opacity="0.1"/>
  <rect id="Rectangle_430" data-name="Rectangle 430" width="56.519" height="33.173" rx="8.65" transform="translate(104.964 110.561)" fill="#5b448a"/>
  <rect id="Rectangle_431" data-name="Rectangle 431" width="56.519" height="33.173" rx="8.65" transform="translate(308.102 143.734) rotate(180)" fill="#444053" opacity="0.1"/>
  <rect id="Rectangle_432" data-name="Rectangle 432" width="56.519" height="33.173" rx="8.65" transform="translate(234.792 143.734) rotate(180)" fill="#5b448a"/>
  <rect id="Rectangle_433" data-name="Rectangle 433" width="56.519" height="33.173" rx="8.65" transform="translate(104.964 158.479)" fill="#444053" opacity="0.1"/>
  <rect id="Rectangle_434" data-name="Rectangle 434" width="56.519" height="33.173" rx="8.65" transform="translate(308.102 191.652) rotate(180)" fill="#444053" opacity="0.1"/>
  <rect id="Rectangle_435" data-name="Rectangle 435" width="56.519" height="33.173" rx="8.65" transform="translate(234.792 191.652) rotate(180)" fill="#444053" opacity="0.1"/>
  <rect id="Rectangle_436" data-name="Rectangle 436" width="56.519" height="33.173" rx="8.65" transform="translate(104.964 206.397)" fill="#444053" opacity="0.1"/>
  <rect id="Rectangle_437" data-name="Rectangle 437" width="56.519" height="33.173" rx="8.65" transform="translate(308.102 239.573) rotate(180)" fill="#444053" opacity="0.1"/>
  <rect id="Rectangle_438" data-name="Rectangle 438" width="56.519" height="33.173" rx="8.65" transform="translate(234.792 239.573) rotate(180)" fill="#444053" opacity="0.1"/>
  <path id="Path_323" data-name="Path 323" d="M267.81,230.077v29.37H511.082v-29.37a5.643,5.643,0,0,0-5.643-5.647H273.453A5.643,5.643,0,0,0,267.81,230.077Zm60.2,8.688a4.505,4.505,0,1,1,4.505-4.505,4.505,4.505,0,0,1-4.505,4.505Zm122.864,0a4.514,4.514,0,1,0-.007,0Z" transform="translate(-182.913 -163.016)" fill="#5b448a"/>
  <path id="Path_324" data-name="Path 324" d="M423.079,236.74a5.325,5.325,0,1,0,5.321,5.324A5.325,5.325,0,0,0,423.079,236.74Zm0,9.83a4.505,4.505,0,1,1,4.505-4.505,4.505,4.505,0,0,1-4.505,4.505Z" transform="translate(-277.978 -170.821)" opacity="0.1"/>
  <path id="Path_325" data-name="Path 325" d="M758.775,236.74a5.325,5.325,0,1,0,5.325,5.325A5.325,5.325,0,0,0,758.775,236.74Zm0,9.83a4.505,4.505,0,1,1,4.505-4.505A4.505,4.505,0,0,1,758.775,246.57Z" transform="translate(-490.818 -170.821)" opacity="0.1"/>
  <circle id="Ellipse_184" data-name="Ellipse 184" cx="5.589" cy="5.589" r="5.589" transform="translate(372.507 148.104)" fill="#6c63ff" opacity="0.1"/>
  <circle id="Ellipse_185" data-name="Ellipse 185" cx="9.369" cy="9.369" r="9.369" transform="translate(388.72 119.4)" fill="#6c63ff" opacity="0.1"/>
  <circle id="Ellipse_186" data-name="Ellipse 186" cx="9.369" cy="9.369" r="9.369" transform="translate(376.317 164.862)" fill="#6c63ff" opacity="0.1"/>
  <circle id="Ellipse_187" data-name="Ellipse 187" cx="13.267" cy="13.267" r="13.267" transform="translate(0 113.204)" fill="#6c63ff" opacity="0.1"/>
  <path id="Path_326" data-name="Path 326" d="M847.941,544.6a11.713,11.713,0,0,0-2.716-1.526.559.559,0,0,0-.238-.062,41.785,41.785,0,0,1-5.6-4.824c.366-.293.7-.578,1.061-.86-2.2-1.047-3.415-3.444-4.6-5.607a55.315,55.315,0,0,0-12.2-15.2c-.121-.465-.827-.366-1.2-.666a.966.966,0,0,1-.267-.933c.059-.337.212-.648.3-.977a6.6,6.6,0,0,0-.062-2.379,2.915,2.915,0,0,1,.476-2.273c.168-.194.384-.344.549-.542a2.064,2.064,0,0,0,.366-1.643,5.834,5.834,0,0,0-.366-1.665q2.69-7.32,5.376-14.665c1.255-3.418,2.522-6.91,2.65-10.555a12.615,12.615,0,0,0-2.423-8.205c.322-.077.644-.157.962-.249-2.093-2.774-2.32-6.449-2.375-9.944q-.044-2.613-.179-5.23c.608.267,1.222.505,1.852.71l.586.179a20.179,20.179,0,0,0,2.9.622c.432.062.871.11,1.307.139h0q-.944-2.364-1.885-4.736a6.472,6.472,0,0,1-.586-2.221h0v-.146a1.277,1.277,0,0,1,.018-.264,2.888,2.888,0,0,1,.143-.615,2.762,2.762,0,0,1,.113-.289,5.126,5.126,0,0,1,.469-.823c.132-.2.278-.4.424-.593a8.092,8.092,0,0,0,1.314-2.126,4.026,4.026,0,0,0,.2-1.211,5.966,5.966,0,0,0-.11-1.244c-.051-.271-.117-.545-.19-.809h0c-.048-.165-.1-.329-.15-.49l-.044-.132c-.04-.124-.081-.245-.124-.366l-.044-.124c-.047-.132-.1-.26-.146-.392l-.029-.077c-.7-1.8-1.629-3.51-2.2-5.358a14.133,14.133,0,0,1-.366-1.5c-.026-.128-.044-.26-.066-.388s-.033-.22-.048-.329-.033-.256-.048-.384l-.033-.366c0-.117-.018-.234-.026-.366,0-.223-.022-.446-.026-.67v-1.017c0-.168.026-.337.04-.5a.744.744,0,0,1,.026-.238q.037-.366.1-.732h0c.037-.216.077-.436.121-.655a8.738,8.738,0,0,0,.205-1.83,1.817,1.817,0,0,0-.026-.366c-.026-.128-.029-.2-.048-.293a.753.753,0,0,1,0-.088.97.97,0,0,0-.047-.2.371.371,0,0,0-.029-.092c-.011-.029-.04-.128-.062-.19s-.018-.055-.029-.084-.051-.132-.081-.194l-.026-.066c-.037-.081-.077-.157-.117-.234h0a5.386,5.386,0,0,0-.49-.761h0c-1.2-1.581-3.206-2.785-4.308-4.527a10.079,10.079,0,0,1-1.233-3.66c-.055-.293-.1-.586-.154-.875s-.1-.575-.146-.86c-.033-.176-.066-.366-.1-.527l-.022-.113c-.029-.139-.059-.282-.091-.421l-.022-.1c-.033-.146-.066-.293-.1-.439l-.022-.077c-.037-.154-.077-.307-.117-.461a.305.305,0,0,1,0-.055c-.044-.161-.091-.322-.139-.483v-.033c-.051-.168-.1-.333-.157-.5h0c-.055-.168-.113-.34-.176-.509h0c-.066-.172-.128-.344-.2-.512h0a13.542,13.542,0,0,0-1.852-3.294,8.741,8.741,0,0,0-6.954-3.594,13.775,13.775,0,0,0-4.183,1.061l-3.524,1.3.984-.454a8.421,8.421,0,0,0-3,.64,2.911,2.911,0,0,0-1.738,2.383c-.018.6.22,1.2.143,1.8-.128.992-1.039,1.665-1.511,2.544a3.271,3.271,0,0,0-.366,1.72v.234a.323.323,0,0,0,0,.059v.117c-1.464-.637-2.928-1.3-4.392-2.009-2.419-1.189-4.868-2.588-6.375-4.842-.483-.732-.856-1.523-1.336-2.247a17.784,17.784,0,0,0-1.83-2.2l-4.491-4.86c-.344.648.1,1.413.447,2.057a8.83,8.83,0,0,1,.831,2.145,1.017,1.017,0,0,1-.022.75,1.463,1.463,0,0,1-.615.436,2.2,2.2,0,0,0-.926,2.514,2.781,2.781,0,0,0,2.075,1.808,3.768,3.768,0,0,1,.926.227c.542.267.8.889,1.186,1.354a5.323,5.323,0,0,0,2.9,1.446c1.662,1.918,3.389,3.755,5.051,5.673,2.514,2.9,5.087,5.856,8.366,7.817.34.2.688.4,1.039.571a.574.574,0,0,1-.018.176,1.984,1.984,0,0,0,.157,1.281,2.012,2.012,0,0,0,1.435.7l2.481.443a8.47,8.47,0,0,1-.121.959c-.033.194-.073.384-.11.578h0l-.044.249v.037a.728.728,0,0,1-.026.2c-.026.07,0,.048,0,.07v.487a4.663,4.663,0,0,0,1.38,2.522l.348.421a5.855,5.855,0,0,0-1.131,2.372,8.051,8.051,0,0,0-.161,1.651,2.866,2.866,0,0,0-.732,1.142,5.22,5.22,0,0,0-.19,1.848v.732a6.149,6.149,0,0,0,.424,2.562c.033.066.07.124.1.187a35.567,35.567,0,0,1-2.119,2.928,6.353,6.353,0,0,0,.582,7.276c.5.578,1.146,1.135,1.2,1.9a7.127,7.127,0,0,1-.1,1.039,7.777,7.777,0,0,0,.527,2.412,2.492,2.492,0,0,1-.2,2,2.928,2.928,0,0,0-.5,1.918,12.814,12.814,0,0,1-.315,3.122c-.033.45,0,.908-.04,1.358a7.652,7.652,0,0,1-.267,1.274.52.52,0,0,1-.037.139c-.9.4-1.8.812-2.664,1.292a2.339,2.339,0,0,0-1.1,1.01,2.592,2.592,0,0,0-.059,1.391l.78,5.424-.135-.059q.092,1.332.19,2.675a3.609,3.609,0,0,0,.512,1.936,5.045,5.045,0,0,1,.553.706c.307.622-.059,1.347-.329,1.984s-.366,1.541.231,1.885a4.864,4.864,0,0,0,1,.534c-.732,3.052-.058,6.251.622,9.314q.779,3.513,1.563,7.02a17.031,17.031,0,0,1,.344,3.016v.439a16.891,16.891,0,0,0,.732,4.106c.812,2.738.033,6.024.289,9.007a26.719,26.719,0,0,0,.856,4.242,130.705,130.705,0,0,1,3.953,21.1,5.3,5.3,0,0,0,2.533,1.768c-.073.886.026,1.9,0,2.416a4.173,4.173,0,0,1-.2,1.259,3.025,3.025,0,0,1-1.914,1.629c-.256.088-.516.157-.78.22l.293-.249a6.537,6.537,0,0,0-4.871.856,1.929,1.929,0,0,0-.963,1.135,1.83,1.83,0,0,0,.337,1.314,5.991,5.991,0,0,0,3.385,2.4,17.762,17.762,0,0,0,4.172.582l2.584.15a.71.71,0,0,0,.168.919,1.807,1.807,0,0,0,.948.344,12.074,12.074,0,0,0,3.188.048,1.248,1.248,0,0,0,.732-.263.472.472,0,0,0,0-.7.772.772,0,0,0,.7-.512,2.079,2.079,0,0,0,.1-.926,9.938,9.938,0,0,0-.8-4.026,1.021,1.021,0,0,0-1.131-.5,43.927,43.927,0,0,1-.732-6.492,15.85,15.85,0,0,0,1.881-.849c-1.8-2.9-1.83-6.588-1.281-9.962a30.185,30.185,0,0,0,.48-3.224,10.692,10.692,0,0,0-1.4-6.39,22.863,22.863,0,0,1,5.709,5.168c2.529,3.294,4.07,7.283,7.17,10.028q.611-.6,1.237-1.186.981,1.662,1.856,3.393a12.91,12.91,0,0,1,1.076,2.675,12.376,12.376,0,0,1,.1,4.315q-.128,1.142-.311,2.273a6.19,6.19,0,0,1-.223.952.659.659,0,0,0-.07-.285c-.194-.34-.732-.187-1.025.048a4.523,4.523,0,0,0-1.263,1.464,1.577,1.577,0,0,0-.227.933,1.379,1.379,0,0,0,.732.915c1.358.794,3.063.22,4.52-.366a5.3,5.3,0,0,0,1.142-.575c.732-.527,1.131-1.394,1.859-1.907a10.762,10.762,0,0,0,1.124-.71c.677-.619.732-1.662,1.226-2.445.82-1.35,2.653-1.7,3.371-3.129C850.162,547.624,849.192,545.629,847.941,544.6Z" transform="translate(-509.17 -273.634)" fill="url(#linear-gradient)"/>
  <path id="Path_327" data-name="Path 327" d="M864.95,807.563a4.078,4.078,0,0,1-.2,1.244,3.008,3.008,0,0,1-1.91,1.607c-.812.282-1.676.366-2.5.611a2.2,2.2,0,0,0-.977.505,1.773,1.773,0,0,0,.564,2.595,4.861,4.861,0,0,0,2.964.457,39.055,39.055,0,0,0,6.412-.911c.761-.179,1.651-.531,1.771-1.3a2.134,2.134,0,0,0-.059-.732,43.268,43.268,0,0,1-.823-7.953,16.531,16.531,0,0,0-4.641-.033C864.661,804.232,865,806.662,864.95,807.563Z" transform="translate(-557.731 -530.158)" fill="#a1616a"/>
  <path id="Path_328" data-name="Path 328" d="M925.593,782.657q1.054,1.746,1.98,3.561a12.6,12.6,0,0,1,1.076,2.639,12.129,12.129,0,0,1,.1,4.256q-.128,1.124-.315,2.243a2.834,2.834,0,0,1-.941,1.984,2.167,2.167,0,0,0,1.867.165A5.377,5.377,0,0,0,931,796.5c3.137-2.587,5.49-6.346,5.607-10.412a1.651,1.651,0,0,0-.172-.922,1.828,1.828,0,0,0-.549-.49,42.174,42.174,0,0,1-6.489-5.449.794.794,0,0,0-.476-.3.824.824,0,0,0-.425.121c-1.2.6-3.217,1.464-3.718,2.836A1.916,1.916,0,0,1,925.593,782.657Z" transform="translate(-599.444 -514.573)" fill="#a1616a"/>
  <path id="Path_329" data-name="Path 329" d="M865.023,823.489a32.579,32.579,0,0,1-8.341,1.87,1.14,1.14,0,0,1-1-.183.761.761,0,0,1-.066-.856,2.233,2.233,0,0,1,.611-.673l1.892-1.585a6.587,6.587,0,0,0-4.809.827,1.914,1.914,0,0,0-.959,1.1,1.786,1.786,0,0,0,.337,1.3,5.98,5.98,0,0,0,3.382,2.372,18.083,18.083,0,0,0,4.169.575l2.562.146a.692.692,0,0,0,.172.908,1.83,1.83,0,0,0,.952.348,12.2,12.2,0,0,0,3.184.044,1.218,1.218,0,0,0,.732-.26.461.461,0,0,0,0-.688.772.772,0,0,0,.7-.509,2.119,2.119,0,0,0,.1-.911,9.587,9.587,0,0,0-.8-3.964C867.212,822.31,865.909,823.123,865.023,823.489Z" transform="translate(-553.514 -541.835)" fill="#3f3d56"/>
  <path id="Path_330" data-name="Path 330" d="M939.6,794.9a11.777,11.777,0,0,0-2.716-1.5.322.322,0,0,0-.49.124,27.859,27.859,0,0,0-4,7.711,13.406,13.406,0,0,1-2,4.523c-.139.168-.366.34-.556.242-.274-.139-.106-.582-.26-.849-.19-.337-.71-.183-1.021.048a4.392,4.392,0,0,0-1.259,1.464,1.464,1.464,0,0,0-.227.919,1.354,1.354,0,0,0,.714.9c1.358.787,3.063.22,4.516-.366a5.17,5.17,0,0,0,1.138-.567c.732-.516,1.131-1.376,1.859-1.878a10.692,10.692,0,0,0,1.124-.7c.673-.611.732-1.64,1.222-2.415.82-1.328,2.653-1.673,3.371-3.085C941.816,797.885,940.85,795.916,939.6,794.9Z" transform="translate(-600.893 -523.708)" fill="#3f3d56"/>
  <path id="Path_331" data-name="Path 331" d="M863.756,594.629c2.877,2.159,4.084,6,3.956,9.592s-1.391,7.042-2.642,10.412q-2.69,7.235-5.373,14.467a5.966,5.966,0,0,1,.366,1.647,2.024,2.024,0,0,1-.366,1.618c-.168.194-.366.344-.549.534a2.866,2.866,0,0,0-.476,2.243,6.5,6.5,0,0,1,.062,2.346c-.084.326-.238.633-.3.963a.955.955,0,0,0,.267.922c.366.293,1.1.2,1.2.659A54.7,54.7,0,0,1,872.1,655.037c1.186,2.134,2.383,4.5,4.6,5.53a80.278,80.278,0,0,0-6.2,5.45c-3.093-2.708-4.633-6.65-7.159-9.881a22.689,22.689,0,0,0-5.7-5.1,10.43,10.43,0,0,1,1.4,6.3,29.226,29.226,0,0,1-.479,3.18c-.567,3.33-.516,6.954,1.281,9.83a10.756,10.756,0,0,1-6.262,1.438,5.329,5.329,0,0,1-3.411-1.947,128.694,128.694,0,0,0-3.949-20.813,25.583,25.583,0,0,1-.853-4.212c-.256-2.928.523-6.185-.293-8.886a16.573,16.573,0,0,1-.732-4.048v-.436a16.588,16.588,0,0,0-.344-2.972l-1.559-6.924c-.681-3.027-1.361-6.182-.626-9.193a4.877,4.877,0,0,1-1-.523c-.6-.34-.5-1.23-.231-1.859s.633-1.343.329-1.958a4.778,4.778,0,0,0-.553-.7,3.517,3.517,0,0,1-.512-1.907l-.19-2.642a5.171,5.171,0,0,1,2.606,2.28c-1.442-2.232-.732-5.417.333-7.854a3.579,3.579,0,0,1,3.36-2.661C851.825,593.531,858.991,591.046,863.756,594.629Z" transform="translate(-545.477 -396.543)" fill="#3f3d56"/>
  <path id="Path_332" data-name="Path 332" d="M891.557,638.93s-2.884,1.925-2.884,3.367-.732,14.42-.732,14.42v9.15s.479,4.809,0,6.009,0,6.73,0,7.451.732-7.451.732-7.451v-8.667L889.4,643.5Z" transform="translate(-575.952 -425.817)" opacity="0.1"/>
  <path id="Path_333" data-name="Path 333" d="M808.716,423.9l-1.68-.655c-3.433-1.376-6.87-2.756-10.193-4.37-2.415-1.175-4.864-2.562-6.368-4.776-.483-.732-.856-1.5-1.336-2.222a17.722,17.722,0,0,0-1.83-2.17l-4.487-4.794c-.344.64.1,1.394.446,2.028a8.781,8.781,0,0,1,.831,2.119.981.981,0,0,1-.026.732,1.423,1.423,0,0,1-.611.432,2.148,2.148,0,0,0-.926,2.478,2.763,2.763,0,0,0,2.071,1.786,3.934,3.934,0,0,1,.926.223c.542.267.8.878,1.186,1.336a5.325,5.325,0,0,0,2.9,1.427c1.662,1.892,3.385,3.7,5.047,5.6,2.511,2.862,5.08,5.775,8.359,7.715A12.244,12.244,0,0,0,806.8,432.3,61.148,61.148,0,0,1,808.716,423.9Z" transform="translate(-509.196 -277.444)" fill="#a1616a"/>
  <path id="Path_334" data-name="Path 334" d="M808.716,423.9l-1.68-.655c-3.433-1.376-6.87-2.756-10.193-4.37-2.415-1.175-4.864-2.562-6.368-4.776-.483-.732-.856-1.5-1.336-2.222a17.722,17.722,0,0,0-1.83-2.17l-4.487-4.794c-.344.64.1,1.394.446,2.028a8.781,8.781,0,0,1,.831,2.119.981.981,0,0,1-.026.732,1.423,1.423,0,0,1-.611.432,2.148,2.148,0,0,0-.926,2.478,2.763,2.763,0,0,0,2.071,1.786,3.934,3.934,0,0,1,.926.223c.542.267.8.878,1.186,1.336a5.325,5.325,0,0,0,2.9,1.427c1.662,1.892,3.385,3.7,5.047,5.6,2.511,2.862,5.08,5.775,8.359,7.715A12.244,12.244,0,0,0,806.8,432.3,61.148,61.148,0,0,1,808.716,423.9Z" transform="translate(-509.196 -277.444)" opacity="0.15"/>
  <path id="Path_335" data-name="Path 335" d="M843.007,465.509a2.015,2.015,0,0,1-1.435-.688,1.929,1.929,0,0,1-.157-1.263,35.411,35.411,0,0,1,1.83-8.088c.816,1.512,2.423,2.394,3.945,3.188a29.281,29.281,0,0,0,4.238,1.932c-.366-.117-1.263,5.512-1.768,5.856-.637.446-2.174-.157-2.88-.278Z" transform="translate(-546.562 -309.5)" fill="#6c63ff"/>
  <circle id="Ellipse_188" data-name="Ellipse 188" cx="7.693" cy="7.693" r="7.693" transform="translate(292.65 138.961)" fill="#a1616a"/>
  <path id="Path_336" data-name="Path 336" d="M852.22,465.522s5.047,4.326,2.884,7.21-3.367,4.809-.483,5.051,12.5-4.809,12.5-4.809-8.893-7.21-7.451-11.536S852.22,465.522,852.22,465.522Z" transform="translate(-553.44 -312.499)" fill="#fbbebe"/>
  <path id="Path_337" data-name="Path 337" d="M851.616,483.866a5.969,5.969,0,0,0-4.417,4.443c-.567,2.591.637,5.49-.5,7.876a31.283,31.283,0,0,1-2.2,3.049,6.222,6.222,0,0,0,.578,7.177c.5.571,1.146,1.124,1.2,1.878a6.9,6.9,0,0,1-.1,1.025,7.6,7.6,0,0,0,.527,2.383,2.424,2.424,0,0,1-.2,1.969,2.851,2.851,0,0,0-.5,1.892,12.654,12.654,0,0,1-.318,3.082c-.033.447,0,.893-.04,1.34a7.817,7.817,0,0,1-.264,1.255l-.644,2.375a26.4,26.4,0,0,0,10.979,1.962,53.81,53.81,0,0,0,10.024-1.464c1.006-.212,2.013-.424,3-.7-2.093-2.738-2.317-6.364-2.375-9.808a146.413,146.413,0,0,0-1.285-17.165,22.074,22.074,0,0,0,1.881-6.174,10.439,10.439,0,0,0,.234-2.609,13.885,13.885,0,0,0-1.768-5.226c-.754-1.515-1.57-3.111-3.25-3.766a2.584,2.584,0,0,0-2.5.274c-1.27.959-.893,2.613-1.219,4.026a5.4,5.4,0,0,1-3.912,3.66,12.718,12.718,0,0,1-4.114.384.732.732,0,0,1-.52-1.2C850.518,485.151,851.111,484.489,851.616,483.866Z" transform="translate(-547.994 -324.073)" fill="#6c63ff"/>
  <path id="Path_338" data-name="Path 338" d="M853.844,574.49a50.079,50.079,0,0,1-9.014,6.324c-1.929.966-3.978,1.68-5.856,2.719a2.339,2.339,0,0,0-1.1,1,2.459,2.459,0,0,0-.059,1.372l.834,5.753c.231,1.559,1.727,2.562,2.928,3.557a2.106,2.106,0,0,1,.077-1.394,4.673,4.673,0,0,1,.282-.421,3.948,3.948,0,0,0,.406-2.7,15.023,15.023,0,0,1-.318-2.774.908.908,0,0,1,.388-.805c4.088-1.965,8.491-3.473,12.623-5.34a13.379,13.379,0,0,0,3.063-1.738,4.714,4.714,0,0,0,1.779-2.954.578.578,0,0,0-.073-.45.611.611,0,0,0-.311-.183C857.643,575.775,855.688,575.156,853.844,574.49Z" transform="translate(-544.263 -384.961)" fill="#a1616a"/>
  <path id="Path_339" data-name="Path 339" d="M853.913,508.5a4.138,4.138,0,0,0-3.378,2.324,5.161,5.161,0,0,0-.19,1.83,5.95,5.95,0,0,0,.428,2.536,7.159,7.159,0,0,0,.856,1.244c3.382,4.333,5.08,9.775,8.374,14.178.293.388.827.893.662,1.35a3.266,3.266,0,0,0-.157.366.732.732,0,0,0,.242.641,1.562,1.562,0,0,1,.4.582c.062.231-.091.531-.329.512a4.9,4.9,0,0,0,2.756,2.514,11.475,11.475,0,0,0,6.152,1.512,14.04,14.04,0,0,0,.732-5.036,13.073,13.073,0,0,0-1.226-3.572l-1.431-3.125a46.531,46.531,0,0,0-4.147-7.744,11.718,11.718,0,0,1-1.534-2.47c-.435-1.131-1.632-1.925-2.357-2.895a17.937,17.937,0,0,0-3.638-3.986A3.286,3.286,0,0,0,853.913,508.5Z" transform="translate(-552.241 -343.107)" opacity="0.1"/>
  <path id="Path_340" data-name="Path 340" d="M853.913,506.526a4.142,4.142,0,0,0-3.378,2.32,5.194,5.194,0,0,0-.19,1.83,5.952,5.952,0,0,0,.428,2.536,7.164,7.164,0,0,0,.856,1.244c3.382,4.333,5.08,9.775,8.374,14.178.293.388.827.893.662,1.35a3.294,3.294,0,0,0-.157.366.732.732,0,0,0,.242.641,1.564,1.564,0,0,1,.4.582c.062.231-.092.531-.329.512a4.9,4.9,0,0,0,2.756,2.514,11.475,11.475,0,0,0,6.152,1.512,14.038,14.038,0,0,0,.732-5.036,13.072,13.072,0,0,0-1.226-3.572l-1.431-3.125a46.54,46.54,0,0,0-4.147-7.744,11.648,11.648,0,0,1-1.533-2.474c-.436-1.127-1.632-1.921-2.357-2.891a17.937,17.937,0,0,0-3.638-3.986A3.3,3.3,0,0,0,853.913,506.526Z" transform="translate(-552.242 -341.858)" fill="#6c63ff"/>
  <path id="Path_341" data-name="Path 341" d="M840.1,419.516a8.47,8.47,0,0,0-2.994.629,2.88,2.88,0,0,0-1.738,2.35,13.989,13.989,0,0,1,.143,1.779c-.128.981-1.039,1.643-1.508,2.511-.82,1.508-.183,3.426.878,4.758s2.5,2.357,3.59,3.682a9.516,9.516,0,0,1,1.984,7.656,6.071,6.071,0,0,0-.194,1.6,4.6,4.6,0,0,0,1.376,2.485,114.809,114.809,0,0,1,8.681,11.55,31.2,31.2,0,0,1,2.137,3.66,22.192,22.192,0,0,0,1.962,3.868,10.216,10.216,0,0,0,2.88,2.47,20.342,20.342,0,0,0,9.223,2.975l-1.885-4.674a5.367,5.367,0,0,1-.567-2.595c.209-1.684,1.907-2.789,2.459-4.392a5.327,5.327,0,0,0-.1-3.221c-.666-2.368-2-4.5-2.716-6.851a13.907,13.907,0,0,1-.41-6.372,9.842,9.842,0,0,0,.3-2.818c-.348-2.862-3.7-4.231-5.255-6.657-1-1.559-1.2-3.48-1.533-5.3a16.736,16.736,0,0,0-3.03-7.44,8.735,8.735,0,0,0-6.954-3.546,14.055,14.055,0,0,0-4.18,1.047l-3.528,1.285" transform="translate(-541.653 -285.499)" fill="#3f3d56"/>
  <g id="Group_82" data-name="Group 82" transform="translate(291.987 138.925)" opacity="0.1">
    <path id="Path_342" data-name="Path 342" d="M893.966,437.289a16.938,16.938,0,0,0,1.263,4.835c-.106-.571-.194-1.146-.3-1.709a21.322,21.322,0,0,0-1.178-4.194C893.842,436.575,893.9,436.93,893.966,437.289Z" transform="translate(-871.757 -436.22)"/>
    <path id="Path_343" data-name="Path 343" d="M911.746,476.248a13.976,13.976,0,0,0,.41,6.375,16.447,16.447,0,0,0,.6,1.647,13.933,13.933,0,0,1-.048-4.9,9.838,9.838,0,0,0,.3-2.818,4.392,4.392,0,0,0-.951-2.2C912,475,911.852,475.623,911.746,476.248Z" transform="translate(-883.044 -460.401)"/>
    <path id="Path_344" data-name="Path 344" d="M917.444,520.69a17.667,17.667,0,0,0-.732-2.02,4.49,4.49,0,0,1-.139,2.115c-.553,1.6-2.254,2.708-2.459,4.392a5.326,5.326,0,0,0,.567,2.595c.124.311.249.626.366.937a3.028,3.028,0,0,1,0-.406c.209-1.684,1.907-2.789,2.459-4.392A5.107,5.107,0,0,0,917.444,520.69Z" transform="translate(-884.655 -488.495)"/>
    <path id="Path_345" data-name="Path 345" d="M867.817,510.158a10.246,10.246,0,0,1-2.88-2.474,22.077,22.077,0,0,1-1.965-3.868,30.89,30.89,0,0,0-2.137-3.66,114.955,114.955,0,0,0-8.677-11.554c-.113-.128-.223-.26-.333-.392a3.762,3.762,0,0,0-.084,1.032,4.6,4.6,0,0,0,1.376,2.485,114.808,114.808,0,0,1,8.681,11.55,31.2,31.2,0,0,1,2.137,3.66,22.19,22.19,0,0,0,1.962,3.868,10.214,10.214,0,0,0,2.88,2.47A20.341,20.341,0,0,0,878,516.252l-1.281-3.147A20.363,20.363,0,0,1,867.817,510.158Z" transform="translate(-845.118 -469.183)"/>
    <path id="Path_346" data-name="Path 346" d="M837.527,450.186c-1.1-1.325-2.529-2.331-3.59-3.678-.1-.124-.187-.253-.278-.388a5.329,5.329,0,0,0,1.241,3.51c1.061,1.35,2.5,2.357,3.59,3.682a9.149,9.149,0,0,1,1.1,1.669,9.515,9.515,0,0,0-2.06-4.794Z" transform="translate(-833.658 -442.497)"/>
  </g>
  <path id="Path_347" data-name="Path 347" d="M395.935,349.235l-2.653-2.668a1.409,1.409,0,0,0-2,0l-16.663,16.509-7.049-7.1a1.405,1.405,0,0,0-1.987,0L362.9,358.63a1.424,1.424,0,0,0,0,2l10.7,10.785a1.42,1.42,0,0,0,2,0l20.334-20.18a1.409,1.409,0,0,0,0-2Z" transform="translate(-242.94 -240.189)" fill="#3acc6c"/>
  <path id="Path_348" data-name="Path 348" d="M596.935,349.235l-2.653-2.668a1.409,1.409,0,0,0-2,0l-16.663,16.509-7.049-7.1a1.405,1.405,0,0,0-1.987,0L563.9,358.63a1.424,1.424,0,0,0,0,2l10.7,10.785a1.42,1.42,0,0,0,2,0l20.334-20.18a1.409,1.409,0,0,0,0-2Z" transform="translate(-370.377 -240.189)" fill="#3acc6c"/>
</svg>
