<svg id="Component_1_1" data-name="Component 1 – 1" xmlns="http://www.w3.org/2000/svg" width="457.796" height="249.881" viewBox="0 0 457.796 249.881">
  <path id="Path_214" data-name="Path 214" d="M480.748,401.4a75.278,75.278,0,0,1-6.533,12.548,54.3,54.3,0,0,1-3.957,5.438l-.044.052H27.8l.08-.056c.4-.311,2.735-2.2,6.369-5.438,2.607-2.325,5.88-5.342,9.554-8.973,30.052-29.558,87.778-99.522,39.7-163.614-44.693-59.582,3.428-70.4,35.171-71.656a90.863,90.863,0,0,1,35.776,5.848,317.539,317.539,0,0,0,76.385,18.033q1.72.2,3.471.374a334.476,334.476,0,0,0,55.645,1.007h0c.545-.028,1.095-.068,1.648-.107a331.109,331.109,0,0,0,54.427-8.424c1.158-.283,2.3-.549,3.439-.8,59.566-13.782,114.478,33.189,100.752,86.274-5.08,19.63-3.79,40.561,13.137,57.488C491.043,357.037,487.671,384.25,480.748,401.4Z" transform="translate(-27.8 -169.628)" fill="#6c63ff" opacity="0.1"/>
  <ellipse id="Ellipse_133" data-name="Ellipse 133" cx="5.593" cy="4.271" rx="5.593" ry="4.271" transform="matrix(0.488, -0.873, 0.873, 0.488, 348.661, 83.742)" fill="#3f3d56"/>
  <ellipse id="Ellipse_134" data-name="Ellipse 134" cx="5.593" cy="4.271" rx="5.593" ry="4.271" transform="matrix(0.488, -0.873, 0.873, 0.488, 351.995, 77.775)" fill="#3f3d56"/>
  <ellipse id="Ellipse_135" data-name="Ellipse 135" cx="5.593" cy="4.271" rx="5.593" ry="4.271" transform="matrix(0.488, -0.873, 0.873, 0.488, 355.333, 71.81)" fill="#3f3d56"/>
  <ellipse id="Ellipse_136" data-name="Ellipse 136" cx="5.593" cy="4.271" rx="5.593" ry="4.271" transform="matrix(0.488, -0.873, 0.873, 0.488, 358.667, 65.839)" fill="#3f3d56"/>
  <ellipse id="Ellipse_137" data-name="Ellipse 137" cx="5.593" cy="4.271" rx="5.593" ry="4.271" transform="matrix(0.488, -0.873, 0.873, 0.488, 362, 59.875)" fill="#3f3d56"/>
  <ellipse id="Ellipse_138" data-name="Ellipse 138" cx="5.593" cy="4.271" rx="5.593" ry="4.271" transform="matrix(0.488, -0.873, 0.873, 0.488, 365.338, 53.908)" fill="#3f3d56"/>
  <ellipse id="Ellipse_139" data-name="Ellipse 139" cx="5.593" cy="4.271" rx="5.593" ry="4.271" transform="matrix(0.488, -0.873, 0.873, 0.488, 368.676, 47.942)" fill="#3f3d56"/>
  <path id="Path_243" data-name="Path 243" d="M562.607,641.968l-77.627-1,.227-1.99,3.754-32.842h68.173l5.016,32.842.382,2.488Z" transform="translate(-294.145 -392.087)" fill="#d0d2d5"/>
  <path id="Path_244" data-name="Path 244" d="M562.531,691.128H523.794l-38.814-.5.227-1.99h76.943Z" transform="translate(-294.145 -441.745)" opacity="0.1"/>
  <rect id="Rectangle_365" data-name="Rectangle 365" width="103.005" height="2.488" transform="translate(177.898 247.393)" fill="#d0d2d5"/>
  <path id="Path_245" data-name="Path 245" d="M525.856,201.963a6.481,6.481,0,0,0-6.445-6.513H231.749a6.481,6.481,0,0,0-6.449,6.513V376.325H525.856Z" transform="translate(-146.678 -185.171)" fill="#444053"/>
  <path id="Path_246" data-name="Path 246" d="M225.3,645.45v20.426a6.445,6.445,0,0,0,6.449,6.465H519.411a6.445,6.445,0,0,0,6.445-6.445V645.45Z" transform="translate(-146.678 -456.031)" fill="#d0d2d5"/>
  <rect id="Rectangle_366" data-name="Rectangle 366" width="277.169" height="156.747" transform="translate(91.063 21.227)" fill="#6c63ff" opacity="0.1"/>
  <path id="Path_247" data-name="Path 247" d="M596.32,673.057a6.724,6.724,0,0,0,5.287-2.564h0a7.227,7.227,0,0,0,.522-.768l-3.686-.605,3.981.028a6.7,6.7,0,0,0,.127-5.323l-5.346,2.787,4.932-3.623a6.716,6.716,0,1,0-11.095,7.484h0a6.715,6.715,0,0,0,5.279,2.584Z" transform="translate(-365.926 -464.513)" fill="#5a417f"/>
  <path id="Path_248" data-name="Path 248" d="M601.23,611.76l30.967,31.1-4.749-31.1Z" transform="translate(-364.117 -395.47)" opacity="0.1"/>
  <rect id="Rectangle_367" data-name="Rectangle 367" width="213.972" height="113.618" transform="translate(123.778 42.573)" fill="#fff"/>
  <path id="Path_256" data-name="Path 256" d="M506.674,444.13s2.13,11.612-2.647,15.4,4.037,26.5,18.678,23.857,20.573-21.712,20.573-21.712-14.642-3.025-9.216-18.424Z" transform="translate(-288.661 -334.324)" fill="#efb7b9"/>
  <path id="Path_257" data-name="Path 257" d="M506.674,444.13s2.13,11.612-2.647,15.4,4.037,26.5,18.678,23.857,20.573-21.712,20.573-21.712-14.642-3.025-9.216-18.424Z" transform="translate(-288.661 -334.324)" opacity="0.1"/>
  <circle id="Ellipse_174" data-name="Ellipse 174" cx="24.232" cy="24.232" r="24.232" transform="translate(206.719 69.861)" fill="#efb7b9"/>
  <path id="Path_258" data-name="Path 258" d="M524.2,495.516v16.473H444.18v-15.72a10.155,10.155,0,0,1,6.194-9.347l2.3-.975c5.8-2.472,12.854-5.541,15.159-6.819a3.792,3.792,0,0,0,.709-.458c1.262-1.262,1.011.378,1.011.378s-.036.31-.06.852c-.135,3.706.4,18.284,17.476,17.07,16.664-1.194,17.4-12.436,17.245-15.744a8.227,8.227,0,0,0-.08-.916,22.844,22.844,0,0,1,3.376,1.1c3.491,1.286,8.623,3.356,10,4.331.43.3.951.617,1.517.932a10.1,10.1,0,0,1,5.175,8.845Z" transform="translate(-253.424 -355.356)" fill="#5a417f"/>
  <path id="Path_259" data-name="Path 259" d="M543.242,481.425c-1.409,6.537-5.836,18.782-21.8,19.108-17,.334-17.982-16.576-17.878-21.373a3.679,3.679,0,0,0,.713-.462c1.262-1.262,1.011.378,1.011.378s-2.146,19.311,17.416,17.914,17.166-16.66,17.166-16.66A19.958,19.958,0,0,1,543.242,481.425Z" transform="translate(-289.162 -355.374)" opacity="0.1"/>
  <path id="Path_260" data-name="Path 260" d="M470.676,349.078a4.189,4.189,0,0,1,4.379,1.592,7.829,7.829,0,0,1,1.119,4.156c1.055.223,1.648-.971,1.744-1.867.4-3.666.418-7.4,1.648-10.935a13.084,13.084,0,0,1,8.049-8.32,9.3,9.3,0,0,1,4.379-.418c.872.147,1.7.45,2.568.593,3.014.5,6.3-.932,9.128.064a7.194,7.194,0,0,1,3.726,3.519,7.678,7.678,0,0,0,1.449,2.106c1.194,1.075,3.089,1.358,4.809,1.7s3.607.92,4.343,2.249c.665,1.194.175,2.588-.048,3.893a9.506,9.506,0,0,0,.983,6.011c.318.605.963,1.29,1.724,1.095a1.521,1.521,0,0,0,.824-.669c1.99-2.787,1.927-6.4,4.407-8.889.832-.832,1.9-1.485,2.711-2.333a5.247,5.247,0,0,0,1.405-4.777c-.446-1.915-1.99-3.511-3.213-5.175a20.3,20.3,0,0,1-3.443-7.146,1.273,1.273,0,0,1,0-.932,2.5,2.5,0,0,1,.88-.72,3.328,3.328,0,0,0,1.143-4.252,7.016,7.016,0,0,0-3.957-3.161,26.351,26.351,0,0,0-5.438-1.194,2.954,2.954,0,0,1-3.025-1.493c-.167-.434-.167-.9-.338-1.338a3.066,3.066,0,0,0-2.3-1.624,6.768,6.768,0,0,0-3.113.219c-1.147.322-2.476.8-3.475.247-.525-.3-.82-.84-1.385-1.083-1.147-.49-2.357.5-3.185,1.314a7.843,7.843,0,0,1-2.878,1.931,4.274,4.274,0,0,1-3.559-.235,11.221,11.221,0,0,1-1.827-1.963,6.873,6.873,0,0,0-4.323-1.771A15.278,15.278,0,0,0,481.7,310a29.554,29.554,0,0,0-8.579,3.583,9.212,9.212,0,0,0-3.288,3.057,6.939,6.939,0,0,0-.74,3.153,11.39,11.39,0,0,0,3.981,9.443c-1.807.756-2.42,2.607-2.842,4.252a23.321,23.321,0,0,0-1.1,7.962,17.488,17.488,0,0,1,.3,4.136,8.942,8.942,0,0,0-.271,1.99A1.9,1.9,0,0,0,470.676,349.078Z" transform="translate(-268.407 -253.787)" fill="#454b69"/>
  <g id="Group_80" data-name="Group 80" transform="translate(200.669 64.471)" opacity="0.1">
    <path id="Path_261" data-name="Path 261" d="M603.423,378.18a5.71,5.71,0,0,1-1.047,1.541c-.8.848-1.879,1.5-2.711,2.337-2.48,2.484-2.428,6.111-4.407,8.889a1.513,1.513,0,0,1-.824.665c-.76.2-1.405-.49-1.724-1.095a9.679,9.679,0,0,1-.864-2.329q-.064.3-.119.609a9.507,9.507,0,0,0,.983,6.011c.319.605.963,1.29,1.724,1.095a1.521,1.521,0,0,0,.824-.669c1.99-2.787,1.927-6.4,4.407-8.889.832-.832,1.9-1.485,2.711-2.333a5.247,5.247,0,0,0,1.405-4.777A5.74,5.74,0,0,0,603.423,378.18Z" transform="translate(-542.826 -359.629)"/>
    <path id="Path_262" data-name="Path 262" d="M606.246,333.977a2.444,2.444,0,0,0-.88.717,1.274,1.274,0,0,0,0,.932,19.468,19.468,0,0,0,.88,2.647h0a3.328,3.328,0,0,0,1.127-4.3,4.367,4.367,0,0,0-.4-.677A3.32,3.32,0,0,1,606.246,333.977Z" transform="translate(-551.06 -332.615)"/>
    <path id="Path_263" data-name="Path 263" d="M473.074,338.308a10.808,10.808,0,0,1-3.8-6.728,9.552,9.552,0,0,0-.175,1.592,12.114,12.114,0,0,0,1.911,7.166,4.072,4.072,0,0,1,2.066-2.03Z" transform="translate(-469.081 -331.58)"/>
    <path id="Path_264" data-name="Path 264" d="M518.1,372.566c.223-1.306.713-2.7.048-3.893-.736-1.33-2.619-1.915-4.343-2.249s-3.607-.621-4.809-1.7a7.675,7.675,0,0,1-1.449-2.106,7.136,7.136,0,0,0-3.726-3.519c-2.83-1-6.115.434-9.128-.064-.872-.143-1.7-.446-2.568-.593a9.3,9.3,0,0,0-4.379.4,13.066,13.066,0,0,0-8.049,8.32c-1.23,3.543-1.258,7.269-1.648,10.935-.1.9-.689,2.09-1.744,1.867a7.9,7.9,0,0,0-1.119-4.156,4.159,4.159,0,0,0-4.379-1.592,2.11,2.11,0,0,1-1.226-.8,6.7,6.7,0,0,1-.024,1.592,8.938,8.938,0,0,0-.271,1.99,1.9,1.9,0,0,0,1.513,1.5,4.189,4.189,0,0,1,4.379,1.592,7.829,7.829,0,0,1,1.119,4.156c1.055.223,1.648-.971,1.744-1.867.4-3.666.418-7.4,1.648-10.935a13.084,13.084,0,0,1,8.049-8.32,9.3,9.3,0,0,1,4.379-.418c.872.147,1.7.45,2.568.593,3.014.5,6.3-.932,9.128.064a7.2,7.2,0,0,1,3.726,3.519A7.678,7.678,0,0,0,508.988,369c1.194,1.075,3.089,1.357,4.809,1.7s3.467.88,4.256,2.114C518.073,372.742,518.085,372.654,518.1,372.566Z" transform="translate(-469.2 -347.69)"/>
    <path id="Path_265" data-name="Path 265" d="M469.464,384.642a11.2,11.2,0,0,0-.191-3.232,14.411,14.411,0,0,0-.111,3.388c.024.291.064.577.1.868C469.313,385.323,469.4,384.985,469.464,384.642Z" transform="translate(-469.098 -361.573)"/>
  </g>
</svg>
