<svg id="Component_3" data-name="Component 3" xmlns="http://www.w3.org/2000/svg" width="464.174" height="257.978" viewBox="0 0 464.174 257.978">
  <path id="Path_167" data-name="Path 167" d="M480.358,369.273a75.455,75.455,0,0,1-6.567,12.63,54.342,54.342,0,0,1-3.978,5.471.28.28,0,0,1-.044.048H25l.06-.048c.4-.312,2.749-2.213,6.4-5.471,2.621-2.333,5.911-5.367,9.6-9.017C71.28,343.171,129.314,272.835,80.981,208.4c-44.931-59.9,3.446-70.768,35.358-72.037a91.171,91.171,0,0,1,35.962,5.879,319.512,319.512,0,0,0,76.8,18.129c1.153.128,2.313.256,3.49.372a336.217,336.217,0,0,0,55.941,1.017h0c.548-.032,1.1-.072,1.657-.112a332.418,332.418,0,0,0,54.716-8.464c1.165-.284,2.313-.552,3.458-.82,59.883-13.855,115.087,33.365,101.284,86.729-5.1,19.738-3.806,40.777,13.207,57.8C490.7,324.674,487.329,352.036,480.358,369.273Z" transform="translate(-21.06 -129.444)" fill="#6c63ff" opacity="0.1"/>
  <path id="Path_168" data-name="Path 168" d="M480.448,708.339a75.455,75.455,0,0,1-6.567,12.63,54.336,54.336,0,0,1-3.978,5.471H25.15c.4-.312,2.749-2.213,6.4-5.471,2.621-2.333,5.911-5.367,9.6-9.017l46.876-9.685a9.117,9.117,0,0,1,1.841-.188l49.974-.072h.052l24.753-.032h.056l20.891-.024h27.682l57.4-.08h24.7l9.857-.112h3.258l28.671-.04h13.559l33.117-.044H393.7l31.368-.044,26.478-.032a9.385,9.385,0,0,1,2.189.26Z" transform="translate(-25.15 -481.511)" fill="#454b69"/>
  <path id="Path_169" data-name="Path 169" d="M31.553,750H473.88a54.371,54.371,0,0,1-3.978,5.471H25.15C25.542,755.139,27.891,753.238,31.553,750Z" transform="translate(-25.15 -510.541)" fill="none"/>
  <path id="Path_170" data-name="Path 170" d="M31.553,750H473.88a54.371,54.371,0,0,1-3.978,5.471H25.15C25.542,755.139,27.891,753.238,31.553,750Z" transform="translate(-25.15 -510.541)" opacity="0.4"/>
  <path id="Path_171" data-name="Path 171" d="M586.7,266.655l-.888.172-40.165,7.716c-11.666,2.241-23.5,4.494-35.35,3.634-8.584-.624-16.6-3.17-24.853-5.4-4.662-1.265-9.6-1.769-11.186-6.988-2.181-7.2,1.369-17.869,2.205-25.169.8-7.164,1.273-14.507-.152-21.587a38.38,38.38,0,0,0-1.249-4.7c-1.429-4.238-3.674-8.644-2.461-12.947.957-3.414,3.874-5.851,6.6-8.108,5.347-4.4,10.806-9.337,12.927-15.936,1.041-3.2,1.237-6.647,2.357-9.825,2.125-6.043,7.464-10.561,13.4-12.955s12.47-2.9,18.878-2.9a127.885,127.885,0,0,1,16.91,1.124c6.122.8,12.293,2.118,17.668,5.152s9.905,8,11.158,14.063c1.773,8.568-3.15,17.693-.508,26.013,1.329,4.206,4.4,7.6,6.535,11.454a27.282,27.282,0,0,1,2,21.211c-2.553,7.912-8.8,15.916-5.6,23.588,2.037,4.879,7.24,7.484,10.866,11.35Q586.278,266.135,586.7,266.655Z" transform="translate(-293.32 -151.66)" fill="#454b69"/>
  <path id="Path_172" data-name="Path 172" d="M587.767,338.426v1.181L547.6,347.322c-11.666,2.241-23.5,4.494-35.35,3.634-8.584-.624-16.6-3.17-24.853-5.4-4.662-1.265-9.6-1.769-11.186-6.988-2.181-7.2,1.369-17.869,2.205-25.169.8-7.164,13.123-33.317,11.7-40.4l73.638,3.2c.5,3.91,19.958,23.536,18.746,27.286-2.553,7.912-8.8,15.916-5.6,23.588C578.938,331.954,584.141,334.56,587.767,338.426Z" transform="translate(-295.277 -224.439)" opacity="0.1"/>
  <path id="Path_173" data-name="Path 173" d="M532.134,351.732c.436,2.477.668,5.2-.6,7.364-1.685,2.9-5.359,3.822-8.644,4.478l-11.406,2.281a4.427,4.427,0,0,0-2.181.864,3.815,3.815,0,0,0-1.016,2.493c-.46,4.13,1,8.2,2.333,12.134,2.693,7.968,4.955,16.1,8.36,23.792s8.08,15.028,14.752,20.166,15.5,7.876,23.668,5.867c7.116-1.749,12.951-6.771,17.981-12.1,4.15-4.4,8.032-9.2,10.045-14.916a53.108,53.108,0,0,0,2.277-12.238l2.025-19.034c.316-2.978.524-6.327-1.409-8.612a10.257,10.257,0,0,0-3.178-2.293c-4.378-2.325-8.989-4.246-13.063-7.048s-7.688-6.659-8.925-11.446c-.74-2.873-.608-6-1.869-8.68a11.721,11.721,0,0,0-7.6-5.927,25.936,25.936,0,0,0-9.877-.4c-3.3.372-16.008,1.325-17.373,5.043-.732,2,2.305,6.3,3.026,8.264A57.7,57.7,0,0,1,532.134,351.732Z" transform="translate(-314.883 -257.548)" fill="#efb7b9"/>
  <path id="Path_174" data-name="Path 174" d="M532.134,351.732c.436,2.477.668,5.2-.6,7.364-1.685,2.9-5.359,3.822-8.644,4.478l-11.406,2.281a4.427,4.427,0,0,0-2.181.864,3.815,3.815,0,0,0-1.016,2.493c-.46,4.13,1,8.2,2.333,12.134,2.693,7.968,4.955,16.1,8.36,23.792s8.08,15.028,14.752,20.166,15.5,7.876,23.668,5.867c7.116-1.749,12.951-6.771,17.981-12.1,4.15-4.4,8.032-9.2,10.045-14.916a53.108,53.108,0,0,0,2.277-12.238l2.025-19.034c.316-2.978.524-6.327-1.409-8.612a10.257,10.257,0,0,0-3.178-2.293c-4.378-2.325-8.989-4.246-13.063-7.048s-7.688-6.659-8.925-11.446c-.74-2.873-.608-6-1.869-8.68a11.721,11.721,0,0,0-7.6-5.927,25.936,25.936,0,0,0-9.877-.4c-3.3.372-16.008,1.325-17.373,5.043-.732,2,2.305,6.3,3.026,8.264A57.7,57.7,0,0,1,532.134,351.732Z" transform="translate(-314.883 -257.548)" opacity="0.1"/>
  <path id="Path_175" data-name="Path 175" d="M551.784,436.86l6.688-14.159c3.134-6.635,6.335-13.607,6-20.935-.064-1.457-.08-3.278,1.2-3.938a3.434,3.434,0,0,1,1.757-.224,71.074,71.074,0,0,1,20.615,4.17,8.179,8.179,0,0,1,3.5,2.025,8.358,8.358,0,0,1,1.573,3.722,108.663,108.663,0,0,1,2.293,13.555c1.2,11.294.6,22.688,0,34.017l-1.777,34.59a3.306,3.306,0,0,1-.292,1.425,3.076,3.076,0,0,1-2.325,1.221,50.483,50.483,0,0,1-10.433.336c-24.493-.928-49.113-2.353-73.446.616q.164-5.4-.172-10.806c-.964-15.564-5-30.748-8.961-45.828-2.309-8.8-4.546-18.409-.828-26.706a11.443,11.443,0,0,1,2.317-3.53,13.168,13.168,0,0,1,5.875-2.95,37.392,37.392,0,0,1,11.322-1.281l25.233,54.936c1.153,2.513,2.1,5.159,3.25,7.64,1.033-4.286-.208-9.309,1.033-13.955A87.888,87.888,0,0,1,551.784,436.86Z" transform="translate(-307.082 -299.157)" fill="#fff"/>
  <path id="Path_176" data-name="Path 176" d="M505.879,473.245c4.514.284,8.9-2.029,12.006-5.3s5.155-7.416,6.888-11.606a114.461,114.461,0,0,0,5.919-18.453c1.2-5.363,2.053-10.914,1.225-16.348-1.145-7.5-5.391-14.323-6.115-21.879-.124-1.321-.044-2.865,1.017-3.662a4.221,4.221,0,0,1,2.337-.608c7.548-.448,15.84-.364,21.687,4.426,1.781,1.457,3.226,3.278,4.966,4.778,4.146,3.6,10.005,5.435,12.667,10.217a35.454,35.454,0,0,1,2.021,5.343c1.529,4.242,4.174,7.972,6.8,11.642-2.549,10.757-5.479,21.523-8.028,32.281a141.164,141.164,0,0,1-5.343,18.69c-1.537,3.962-3.47,8-3,12.246a27.97,27.97,0,0,0,1.229,4.875,56.028,56.028,0,0,1,2.357,17.421l-114.195.28c5.471-7.844,7.076-17.465,6.519-27.01a29.513,29.513,0,0,0-3.6-13.135c-3.626-6.2-10.005-10.245-16.292-13.707-4.4-2.4-9.129,11.11-13.887,9.561.768-5.435,1.121-26.414.8-31.884a14.61,14.61,0,0,1,.288-5.347c.376-1.173,1.069-2.221,1.537-3.362,1.877-4.566.088-10.405,3.122-14.291,2.1-2.7,5.775-3.47,8.765-5.135,3.07-1.713,5.443-4.4,8.116-6.7a36.094,36.094,0,0,1,18.474-8.248,23.268,23.268,0,0,1,3.526,10.405c.2,2.325.056,4.682.38,7a34.443,34.443,0,0,0,3.026,8.973c5.351,12.082,10.721,24.2,17.5,35.546a37.655,37.655,0,0,0,6.779,8.9A15.492,15.492,0,0,0,505.879,473.245Z" transform="translate(-263.814 -297.743)" fill="#6c63ff"/>
  <path id="Path_177" data-name="Path 177" d="M505.879,473.245c4.514.284,8.9-2.029,12.006-5.3s5.155-7.416,6.888-11.606a114.461,114.461,0,0,0,5.919-18.453c1.2-5.363,2.053-10.914,1.225-16.348-1.145-7.5-5.391-14.323-6.115-21.879-.124-1.321-.044-2.865,1.017-3.662a4.221,4.221,0,0,1,2.337-.608c7.548-.448,15.84-.364,21.687,4.426,1.781,1.457,3.226,3.278,4.966,4.778,4.146,3.6,10.005,5.435,12.667,10.217a35.454,35.454,0,0,1,2.021,5.343c1.529,4.242,4.174,7.972,6.8,11.642-2.549,10.757-5.479,21.523-8.028,32.281a141.164,141.164,0,0,1-5.343,18.69c-1.537,3.962-3.47,8-3,12.246a27.97,27.97,0,0,0,1.229,4.875,56.028,56.028,0,0,1,2.357,17.421l-114.195.28c5.471-7.844,7.076-17.465,6.519-27.01a29.513,29.513,0,0,0-3.6-13.135c-3.626-6.2-10.005-10.245-16.292-13.707-4.4-2.4-9.129,11.11-13.887,9.561.768-5.435,1.121-26.414.8-31.884a14.61,14.61,0,0,1,.288-5.347c.376-1.173,1.069-2.221,1.537-3.362,1.877-4.566.088-10.405,3.122-14.291,2.1-2.7,5.775-3.47,8.765-5.135,3.07-1.713,5.443-4.4,8.116-6.7a36.094,36.094,0,0,1,18.474-8.248,23.268,23.268,0,0,1,3.526,10.405c.2,2.325.056,4.682.38,7a34.443,34.443,0,0,0,3.026,8.973c5.351,12.082,10.721,24.2,17.5,35.546a37.655,37.655,0,0,0,6.779,8.9A15.492,15.492,0,0,0,505.879,473.245Z" transform="translate(-263.814 -297.743)" fill="#5a417f" opacity="0.913"/>
  <circle id="Ellipse_107" data-name="Ellipse 107" cx="34.306" cy="34.306" r="34.306" transform="translate(201.72 24.665)" fill="#efb7b9"/>
  <path id="Path_178" data-name="Path 178" d="M529.194,269.164c.94-8.877-2.749-17.561-6.928-25.449-2-3.77-4.146-7.528-5.151-11.67s-.716-8.833,1.853-12.238c2.185-2.9,5.651-4.462,8.857-6.163,9.049-4.8,17.321-11.862,21.3-21.3-2.249,1.225-1.665,4.878.32,6.491s4.69,1.925,7.132,2.693c8.9,2.8,14.239,11.678,18.522,19.97a9.543,9.543,0,0,1,1.4,4.306,8.735,8.735,0,0,1-1.433,4.174c-2.113,3.762-4.7,7.376-5.659,11.582-1.1,4.8.06,9.853,1.569,14.563,1.6,5.011,3.726,10.061,7.568,13.655s9.8,5.379,14.527,3.058c-4.718-8.112-9.6-17.177-7.764-26.374.888-4.4,3.278-8.4,4.294-12.783,1.937-8.352-1.289-16.945-4.454-24.917l-9.461-23.792c-1.445-3.638-3.09-7.52-6.4-9.581-2.241-1.389-4.955-1.749-7.58-2-8.452-.752-17.209-.5-25.077,2.641-14.335,5.727-23.324,19.846-30.456,33.541-2.137,4.1-4.246,8.46-4.158,13.087a36.315,36.315,0,0,0,1.333,7.48c2.345,10.069,2.473,20.5,2.593,30.84.092,7.932-.32,15.408-3.79,22.632,4.754.944,11.65,3.494,16.356,1.629C524.643,282.811,528.421,275.339,529.194,269.164Z" transform="translate(-311.17 -164.478)" fill="#454b69"/>
  <g id="Group_73" data-name="Group 73" transform="translate(190.824 27.23)" opacity="0.1">
    <path id="Path_179" data-name="Path 179" d="M505.893,332.093q.024-1.693,0-3.418c-.12-10.337-.248-20.771-2.593-30.84a52.062,52.062,0,0,1-1.225-5.955,15.559,15.559,0,0,0-.108,2.077,36.314,36.314,0,0,0,1.333,7.48C505.633,311.446,505.777,321.815,505.893,332.093Z" transform="translate(-501.966 -262.993)"/>
    <path id="Path_180" data-name="Path 180" d="M713.847,313.882a24.214,24.214,0,0,0,.52-7.132,22.217,22.217,0,0,1-.52,3.53c-1.016,4.4-3.406,8.368-4.294,12.783a21.211,21.211,0,0,0-.32,5.915,20.985,20.985,0,0,1,.32-2.313C710.441,322.25,712.83,318.268,713.847,313.882Z" transform="translate(-626.236 -271.912)"/>
    <path id="Path_181" data-name="Path 181" d="M598.019,251.957a5.765,5.765,0,0,0,.312-1.765,9.643,9.643,0,0,0-1.4-4.306c-4.282-8.292-9.6-17.161-18.522-19.97-2.441-.768-5.143-1.081-7.132-2.693a5.075,5.075,0,0,1-1.753-3.522c-4.338,7.964-11.79,14.055-19.866,18.333-3.2,1.7-6.671,3.266-8.857,6.163a13.651,13.651,0,0,0-2.293,9.689A12.249,12.249,0,0,1,540.8,247.8c2.185-2.9,5.651-4.462,8.857-6.163,8.076-4.278,15.528-10.369,19.866-18.333a5.075,5.075,0,0,0,1.753,3.522c2,1.6,4.69,1.925,7.132,2.693,8.9,2.8,14.239,11.678,18.522,19.97A15.766,15.766,0,0,1,598.019,251.957Z" transform="translate(-523.824 -219.7)"/>
    <path id="Path_182" data-name="Path 182" d="M678.913,372.283c-3.842-3.6-5.959-8.644-7.568-13.655a39.53,39.53,0,0,1-1.921-8.688c-.372,4.11.648,8.316,1.921,12.29,1.6,5.011,3.726,10.061,7.568,13.655s9.8,5.379,14.527,3.058c-.568-.973-1.133-1.961-1.693-2.958C687.357,377.222,682.314,375.461,678.913,372.283Z" transform="translate(-602.36 -297.817)"/>
    <path id="Path_183" data-name="Path 183" d="M529.378,402.668c-.772,6.175-4.55,13.647-10.7,16.088-4.27,1.693-10.349-.252-14.988-1.329a34.657,34.657,0,0,1-1.369,3.3c4.754.944,11.65,3.494,16.356,1.629,6.151-2.441,9.929-9.913,10.7-16.088a27.818,27.818,0,0,0,.088-4.65C529.442,401.968,529.406,402.32,529.378,402.668Z" transform="translate(-502.178 -328.815)"/>
  </g>
  <path id="Path_184" data-name="Path 184" d="M648.617,649.143c-6.183-.981-12.458-2.873-18.59-1.6a25.842,25.842,0,0,0-9.757,4.642c1.625,1.3,3.522,2.461,4.554,4.27a16.81,16.81,0,0,1,1.433,3.95,33.614,33.614,0,0,1,1.4,7.348,11.184,11.184,0,0,1-1.889,7.112c7.8.768,15.352-1.153,22.956-3.03a6.288,6.288,0,0,0,2.429-.981,5.215,5.215,0,0,0,1.561-4.158,28.469,28.469,0,0,0-1.549-8.032C650.237,655.514,649.549,652.272,648.617,649.143Z" transform="translate(-382.1 -448.832)" fill="#fff"/>
  <path id="Path_185" data-name="Path 185" d="M724.866,483.128c3.07.4,5.451,2.878,7.2,5.423,4.919,7.084,7.04,15.672,9.4,23.968a319.028,319.028,0,0,0,10.353,30.464,45.861,45.861,0,0,0,3.106,6.683c.989,1.653,2.189,3.242,2.625,5.119,1.057,4.538-2.685,8.8-6.587,11.334a26.07,26.07,0,0,1-6.743,3.25,40.172,40.172,0,0,1-7.172,1.225l-22.215,2.4c-10.225,1.113-20.543,2.225-30.772,1.153-.644-2.241.62-3.826.528-6.159a13.757,13.757,0,0,0-1.457-4.758,30.416,30.416,0,0,1-2.373-8.608,11.664,11.664,0,0,0-.572-3.23,3.027,3.027,0,0,0-2.4-2c6-.6,10.561-1.729,16.565-2.329,2.229-.224,4.546-.476,6.447-1.661,2.357-1.469,3.678-4.118,4.726-6.687,2.6-6.363,4.27-13.375,2.905-20.114-1.12-5.527-4.246-10.673-4.23-16.312a24.407,24.407,0,0,1,2.5-9.685c1.433-3.25,3.3-6.571,6.447-8.22S721.316,482.647,724.866,483.128Z" transform="translate(-416.6 -350.319)" fill="#6c63ff"/>
  <path id="Path_186" data-name="Path 186" d="M724.866,483.128c3.07.4,5.451,2.878,7.2,5.423,4.919,7.084,7.04,15.672,9.4,23.968a319.028,319.028,0,0,0,10.353,30.464,45.861,45.861,0,0,0,3.106,6.683c.989,1.653,2.189,3.242,2.625,5.119,1.057,4.538-2.685,8.8-6.587,11.334a26.07,26.07,0,0,1-6.743,3.25,40.172,40.172,0,0,1-7.172,1.225l-22.215,2.4c-10.225,1.113-20.543,2.225-30.772,1.153-.644-2.241.62-3.826.528-6.159a13.757,13.757,0,0,0-1.457-4.758,30.416,30.416,0,0,1-2.373-8.608,11.664,11.664,0,0,0-.572-3.23,3.027,3.027,0,0,0-2.4-2c6-.6,10.561-1.729,16.565-2.329,2.229-.224,4.546-.476,6.447-1.661,2.357-1.469,3.678-4.118,4.726-6.687,2.6-6.363,4.27-13.375,2.905-20.114-1.12-5.527-4.246-10.673-4.23-16.312a24.407,24.407,0,0,1,2.5-9.685c1.433-3.25,3.3-6.571,6.447-8.22S721.316,482.647,724.866,483.128Z" transform="translate(-416.6 -350.319)" fill="#5a417f"/>
  <path id="Path_187" data-name="Path 187" d="M443.284,377.582c1.453-3.45,2.93-7.012,2.97-10.754.044-4.046-1.6-7.888-2.857-11.73a67.83,67.83,0,0,1-3.086-14.483,2,2,0,0,1,.2-1.389,2.385,2.385,0,0,1,1.537-.688c2.769-.632,4.863-2.869,6.591-5.123a56.167,56.167,0,0,0,6.747-11.27c1.325-2.95,3.118-6.547,6.351-6.575a183.442,183.442,0,0,1-4.834,18.109c3.382-.864,6.6-2.121,9.977-2.986a5.975,5.975,0,0,1,2.049-.272,3.093,3.093,0,0,1,2.089,4.614c1.653,1.937,4.4,2.457,6.563,3.786s3.714,4.618,1.793,6.287a5.357,5.357,0,0,0-1.125.969c-.929,1.433,1.345,3.078,1.157,4.774-.152,1.389-1.933,2.037-3.282,1.669a14.769,14.769,0,0,1-3.6-2.117c-1.2-.74-2.769-1.2-3.934-.432-.312,3.766-.648,7.6-2.277,11.034-.6,1.253-1.361,2.425-1.841,3.726a18.363,18.363,0,0,0-.848,4.374l-1.453,13.283C455.239,383.777,449.023,381.7,443.284,377.582Z" transform="translate(-274.134 -249.972)" fill="#efb7b9"/>
  <path id="Path_188" data-name="Path 188" d="M441.361,475.54l-1.277-8.64a10.551,10.551,0,0,1,1.529-7.86c7.064,3.3,14.7,4.47,22.492,4.474a3.512,3.512,0,0,0,2.841-.9c1.325,1.525,1.365,3.978.8,5.915s-1.649,3.682-2.369,5.571a7.942,7.942,0,0,1-1.357,2.737c-1.081,1.165-2.833,1.365-4.426,1.357a28.3,28.3,0,0,1-4.995-.476C450.333,476.925,445.627,474.776,441.361,475.54Z" transform="translate(-273.903 -336.025)" fill="#fff"/>
  <path id="Path_189" data-name="Path 189" d="M451.071,493.158q-8.224-.936-16.34-2.641a33.047,33.047,0,0,0-8.036-1.069c-1.761.072-3.654.424-5.2-.448a25.048,25.048,0,0,1-.2,15.584c-1.069,3-2.7,5.8-3.482,8.889-1.633,6.463.608,13.511-1.433,19.858a5.027,5.027,0,0,1-1.233,2.209c-.624.572-1.477.868-2.053,1.489a5.081,5.081,0,0,0-.9,3.53l-.036,11.026c-.024,7.02.068,14.463,3.774,20.41a19.379,19.379,0,0,0,20.867,8.26,15.513,15.513,0,0,0,5.667-2.773c2.689-2.137,4.4-5.227,6.079-8.236,2-3.6,4-7.284,4.646-11.338a32.218,32.218,0,0,0-.128-8.684c-1.809-16.008-5.735-31.88-4.891-47.949a14.532,14.532,0,0,1,2.91-8.116Z" transform="translate(-257.267 -353.995)" fill="#5a417f"/>
  <path id="Path_190" data-name="Path 190" d="M494.126,662.72a48.506,48.506,0,0,1-8.352,0c-2-.24-3.954-.732-5.939-1.069a38.064,38.064,0,0,0-30.652,8.516c-1.537,1.313-3.09,3.326-2.241,5.163.912,1.977,3.7,1.921,5.851,1.553a17.609,17.609,0,0,0-6,4.694,3.544,3.544,0,0,0-1.053,2.549c.244,1.981,2.934,2.341,4.923,2.169a1.657,1.657,0,0,0,.612,2.4,4.106,4.106,0,0,0,2.781.2,20.619,20.619,0,0,0,5.907-2.045,2.251,2.251,0,0,0,1.2,2.617,4.946,4.946,0,0,0,3.086.284c4.891-.8,8.973-4.2,13.743-5.539,7.628-2.133,15.608,1.269,23.536,1.509a16.421,16.421,0,0,0,7.288-1.2c2.773-1.261,5.011-3.626,7.94-4.466,3.254-.928,6.988.14,9.965-1.465,2.165-1.165.212-10.141-.34-11.87-1.013-3.162-2.029-5.259-5.4-5.579C512.439,660.311,502.727,662.224,494.126,662.72Z" transform="translate(-277.407 -457.122)" fill="#efb7b9"/>
  <path id="Path_191" data-name="Path 191" d="M619.88,657.033S632.8,667.97,625.347,679.9l14.407-4.975V664.489c0-.5-5.471-7.952-5.471-7.952l-6.463-1Z" transform="translate(-381.866 -453.885)" fill="#fff"/>
  <path id="Path_210" data-name="Path 210" d="M788.784,557.55,731.1,565.182l-2.885.38L700.01,550.5v-3.526l88.133-9.613Z" transform="translate(-419.922 -328.469)" fill="#9c9ca1"/>
  <path id="Path_211" data-name="Path 211" d="M740.85,563.148l62.492-7.368-.64,11.538-48.677,3.57Z" transform="translate(-444.418 -339.517)" fill="#939498"/>
  <path id="Path_212" data-name="Path 212" d="M756.092,712.059v3.786l-2.885.4L725,701.166V697.64l26.922,14.407S755.452,712.38,756.092,712.059Z" transform="translate(-444.916 -479.136)" opacity="0.4"/>
  <path id="Path_213" data-name="Path 213" d="M810.82,572.838l-12.951,60.051a3.834,3.834,0,0,0,4.25,4.614l81.934-10.846a3.834,3.834,0,0,0,3.138-2.593l17.677-53.307a3.842,3.842,0,0,0-3.826-5.043l-86.652,4.114A3.842,3.842,0,0,0,810.82,572.838Z" transform="translate(-488.57 -400.005)" fill="#3f3d56"/>
  <ellipse id="Ellipse_132" data-name="Ellipse 132" cx="3.482" cy="2.237" rx="3.482" ry="2.237" transform="translate(362.458 197.986) rotate(-84)" fill="#fff"/>
</svg>
