<svg xmlns="http://www.w3.org/2000/svg" width="37" height="37" viewBox="0 0 37 37">
  <g id="ig-circle" transform="translate(-335 -2676)">
    <g id="Ellipse_203" data-name="Ellipse 203" transform="translate(335 2676)" fill="none" stroke="#4d4d4d" stroke-width="1">
      <circle cx="18.5" cy="18.5" r="18.5" stroke="none"/>
      <circle cx="18.5" cy="18.5" r="18" fill="none"/>
    </g>
    <g id="instagram-logo" transform="translate(345.461 2686.968)">
      <path id="Path_5" data-name="Path 5" d="M11.292,0H4.3A4.26,4.26,0,0,0,0,4.205v6.828a4.26,4.26,0,0,0,4.3,4.205h6.988a4.26,4.26,0,0,0,4.3-4.205V4.205A4.26,4.26,0,0,0,11.292,0Zm2.92,11.034a2.891,2.891,0,0,1-2.92,2.853H4.3a2.89,2.89,0,0,1-2.92-2.853V4.205A2.891,2.891,0,0,1,4.3,1.352h6.988a2.891,2.891,0,0,1,2.92,2.853v6.828Z" transform="translate(0 0)" fill="#4d4d4d"/>
      <path id="Path_6" data-name="Path 6" d="M44.987,40.97A3.928,3.928,0,1,0,49.005,44.9,3.978,3.978,0,0,0,44.987,40.97Zm0,6.5A2.575,2.575,0,1,1,47.622,44.9,2.608,2.608,0,0,1,44.987,47.471Z" transform="translate(-37.189 -37.277)" fill="#4d4d4d"/>
      <path id="Path_7" data-name="Path 7" d="M119.936,28.251a1.031,1.031,0,0,0-.717.29.974.974,0,0,0,0,1.4,1.031,1.031,0,0,0,1.434,0,.976.976,0,0,0,0-1.4A1.031,1.031,0,0,0,119.936,28.251Z" transform="translate(-107.951 -25.704)" fill="#4d4d4d"/>
    </g>
  </g>
</svg>
