<svg xmlns="http://www.w3.org/2000/svg" xmlns:xlink="http://www.w3.org/1999/xlink" width="24" height="26" viewBox="0 0 24 26">
    <defs>
        <path id="a" d="M0 26h24V0H0z"/>
    </defs>
    <g fill="none" fill-rule="evenodd">
        <path fill="#ADB3BA" d="M20.92 1.614V22.21c0 .893-.713 1.614-1.595 1.614H3.745c-.882 0-1.595-.721-1.595-1.614V1.614C2.15.72 2.863 0 3.745 0h15.58c.882 0 1.595.72 1.595 1.614"/>
        <path fill="#E8EAE9" d="M18.77 3.79v20.596c0 .893-.713 1.614-1.595 1.614H1.595C.714 26 0 25.28 0 24.386V8.563l6.313-6.387h10.862c.882 0 1.595.722 1.595 1.615"/>
        <mask id="b" fill="#fff">
            <use xlink:href="#a"/>
        </mask>
        <path fill="#ADB3BA" d="M2.15 19.647h14.528V18.06H2.15zM2.15 15.882h14.528v-1.588H2.15zM2.15 12.118h14.528v-1.589H2.15zM8.368 8.353h8.31V6.765h-8.31z" mask="url(#b)"/>
        <path fill="#CED6E0" d="M6.334 2.176V6.98c0 .885-.714 1.608-1.594 1.608H0l6.334-6.412z" mask="url(#b)"/>
        <path fill="#FD5F6F" d="M21.385 15.941v8.35l-2.497-2.547-2.5 2.55v-8.353z" mask="url(#b)"/>
        <path fill="#FFDA0E" d="M24 12.765c0 2.923-2.342 5.294-5.23 5.294-2.889 0-5.23-2.37-5.23-5.294 0-2.924 2.341-5.294 5.23-5.294 2.888 0 5.23 2.37 5.23 5.294" mask="url(#b)"/>
        <path fill="#FDBE1D" d="M22.082 12.794c0 1.836-1.47 3.324-3.283 3.324-1.814 0-3.283-1.488-3.283-3.324 0-1.835 1.47-3.323 3.283-3.323s3.283 1.488 3.283 3.323" mask="url(#b)"/>
        <path fill="#0072DB" d="M9.202 22.128c-.166.137-.429.457-.31 1.046.014.064.114.175.268.216.143.039.265 0 .363-.114.177-.204-.027-.78-.321-1.148m.061 1.813a.939.939 0 0 1-.24-.032c-.334-.088-.597-.34-.656-.628-.111-.55.014-1.057.335-1.416a1.157 1.157 0 0 0-.551.065c-.34.129-.586.446-.847.783l-.11.14c-.463.585-.924.871-1.406.871h-.02c-.523-.009-1.023-.38-1.274-.943-.21-.47-.232-.986-.252-1.441a.268.268 0 0 1 .257-.28c.165-.014.273.109.28.257.017.427.036.868.204 1.245.137.306.435.619.793.625.3.018.639-.214.999-.668l.106-.136c.28-.362.6-.773 1.08-.956.472-.18.984-.134 1.358.098.853-.123 2.695.188 3.59.856a.268.268 0 1 1-.32.43c-.707-.527-2.04-.755-2.799-.776.291.475.509 1.164.137 1.593a.868.868 0 0 1-.664.313" mask="url(#b)"/>
    </g>
</svg>
