<svg width="109" height="109" viewBox="0 0 109 109" fill="none" xmlns="http://www.w3.org/2000/svg">
<path d="M66.6667 26H34C30.7799 26.0038 28.1705 28.6133 28.1667 31.8333V76.1666C28.1705 79.3867 30.7799 81.9962 34 82H66.6667C69.8868 81.9962 72.4962 79.3867 72.5 76.1667V31.8333C72.4962 28.6133 69.8867 26.0038 66.6667 26ZM70.1667 76.1667C70.1667 78.0997 68.5997 79.6667 66.6667 79.6667H34C32.067 79.6667 30.5 78.0997 30.5 76.1667V31.8333C30.5 29.9003 32.067 28.3333 34 28.3333H66.6667C68.5997 28.3333 70.1667 29.9003 70.1667 31.8333V76.1667Z" fill="#654794"/>
<path d="M71.3333 33H29.3333V35.3333H71.3333V33Z" fill="#654794"/>
<path d="M71.3333 72.6667H29.3333V75H71.3333V72.6667Z" fill="#654794"/>
<path d="M65.5 34.1667V60.517L58.017 68H35.1667V34.1667H32.8333V68C32.8333 69.2887 33.8779 70.3333 35.1666 70.3333H58.5C58.8094 70.3332 59.106 70.2103 59.3248 69.9915L67.4915 61.8248C67.7104 61.6061 67.8333 61.3093 67.8333 61V34.1667H65.5Z" fill="#654794"/>
<path d="M59.6667 59.8333C58.378 59.8333 57.3334 60.8779 57.3334 62.1666V69.1666H59.6667V62.1666H66.6667V59.8333H59.6667V59.8333Z" fill="#654794"/>
<path d="M80.6667 70.3333H76V72.6666H80.6667V70.3333Z" fill="#654794"/>
<path d="M81.6373 32.3525L79.304 28.8525C79.2345 28.7596 79.1522 28.6773 79.0594 28.6078C78.5234 28.2068 77.7637 28.3163 77.3627 28.8525L75.0294 32.3525C74.902 32.5444 74.8337 32.7696 74.8334 33V77.3333C74.8334 77.9776 75.3558 78.5 76.0001 78.5H80.6668C81.3111 78.5 81.8335 77.9776 81.8335 77.3333V33C81.833 32.7696 81.7648 32.5444 81.6373 32.3525ZM79.5 76.1667H77.1667V33.35L78.3334 31.6L79.5 33.35V76.1667Z" fill="#654794"/>
<path d="M60.8333 40H39.8333C39.189 40 38.6666 40.5224 38.6666 41.1667V48.1667C38.6666 48.811 39.189 49.3334 39.8333 49.3334H60.8333C61.4776 49.3334 62 48.811 62 48.1667V41.1667C62 40.5224 61.4776 40 60.8333 40ZM59.6667 47H41V42.3333H59.6667V47V47Z" fill="#654794"/>
<path d="M41 51.6667H38.6667V54H41V51.6667Z" fill="#654794"/>
<path d="M45.6666 51.6667H43.3333V54H45.6666V51.6667Z" fill="#654794"/>
<path d="M62 51.6667H48V54H62V51.6667Z" fill="#654794"/>
<path d="M53.8334 56.3333H38.6667V58.6666H53.8334V56.3333Z" fill="#654794"/>
<path d="M49.1667 61H38.6667V63.3333H49.1667V61Z" fill="#654794"/>
<circle cx="54.5" cy="54.5" r="53.5" stroke="#654794" stroke-width="2"/>
</svg>
