<?xml version="1.0" encoding="utf-8"?>
<!-- Generator: Adobe Illustrator 24.1.2, SVG Export Plug-In . SVG Version: 6.00 Build 0)  -->
<svg version="1.1" id="Layer_1" xmlns="http://www.w3.org/2000/svg" xmlns:xlink="http://www.w3.org/1999/xlink" x="0px" y="0px"
	 viewBox="0 0 652.29 219.3" style="enable-background:new 0 0 652.29 219.3;" xml:space="preserve">
<style type="text/css">
	.st0{fill:#644894;}
	.st1{fill:#F5841F;}
</style>
<g>
	<g>
		<g>
			<path class="st0" d="M38.61,119.14v69.1c0,4.34-0.66,8.33-1.97,11.97c-1.31,3.64-3.23,6.74-5.76,9.32
				c-2.53,2.58-5.56,4.57-9.09,5.99c-3.54,1.41-7.53,2.12-11.97,2.12c-2.33,0-4.34-0.58-6.06-1.74c-1.72-1.16-2.83-2.7-3.33-4.62
				c-0.5-1.72-0.55-3.21-0.15-4.47c0.4-1.26,1.01-2.35,1.82-3.26c0.81-0.91,1.79-1.62,2.96-2.12c1.16-0.51,2.25-0.86,3.26-1.06
				c2.83-0.51,5.1-1.67,6.82-3.48c1.72-1.82,2.58-4.55,2.58-8.18v-69.55c0-2.52,1.01-4.7,3.03-6.52c2.02-1.82,4.49-2.73,7.42-2.73
				c2.93,0,5.4,0.91,7.42,2.73C37.59,114.44,38.61,116.62,38.61,119.14z M39.97,89.59c0,2.93-1.14,5.43-3.41,7.5
				c-2.27,2.07-5.08,3.11-8.41,3.11s-6.14-1.03-8.41-3.11c-2.27-2.07-3.41-4.57-3.41-7.5c0-2.93,1.14-5.43,3.41-7.5
				c2.27-2.07,5.08-3.11,8.41-3.11s6.14,1.04,8.41,3.11C38.83,84.16,39.97,86.66,39.97,89.59z"/>
			<path class="st0" d="M117.85,140.81v28.18c0,2.22,0.48,3.51,1.44,3.86c0.96,0.35,2.1,0.78,3.41,1.29
				c2.32,0.91,3.49,2.83,3.49,5.76c0,2.42-0.81,4.34-2.42,5.76c-1.62,1.42-4.45,2.12-8.49,2.12c-2.83,0-5.25-0.46-7.27-1.36
				c-2.02-0.91-3.89-2.58-5.61-5c-2.83,2.33-5.89,4.04-9.17,5.15c-3.28,1.11-7.05,1.67-11.29,1.67c-8.89,0-15.61-2.17-20.15-6.52
				c-4.55-4.34-6.82-10.15-6.82-17.43v-0.46c0-15.46,10-23.18,30-23.18c2.02,0,4.02,0.1,5.99,0.3c1.97,0.2,3.96,0.61,5.99,1.21
				v-4.85c0-6.97-3.84-10.46-11.52-10.46c-2.12,0-3.92,0.23-5.38,0.68c-1.47,0.46-2.96,1.04-4.47,1.74
				c-0.61,0.2-1.36,0.51-2.27,0.91c-0.91,0.4-2.07,0.61-3.49,0.61c-3.23,0-5.51-0.98-6.82-2.95c-1.31-1.97-1.97-3.91-1.97-5.83
				c0-2.22,0.76-4.14,2.27-5.76c1.52-1.61,3.51-2.93,5.99-3.94c2.47-1.01,5.25-1.74,8.33-2.2c3.08-0.45,6.19-0.68,9.32-0.68
				c11.01,0,18.92,2.65,23.71,7.96C115.45,122.7,117.85,130.5,117.85,140.81z M86.18,155.35c-4.34,0-7.17,0.86-8.49,2.58
				c-1.31,1.72-1.97,3.74-1.97,6.06v0.45c0,2.53,0.76,4.32,2.27,5.38c1.52,1.06,3.89,1.59,7.12,1.59c2.02,0,3.99-0.28,5.91-0.83
				c1.92-0.55,3.89-1.59,5.91-3.11v-10.91C92.9,155.76,89.31,155.35,86.18,155.35z"/>
			<path class="st0" d="M164.37,110.05c2.32,0,4.44,0.2,6.36,0.61c1.92,0.41,4.24,1.16,6.97,2.27V87.02c0-2.63,0.91-4.82,2.73-6.59
				c1.82-1.77,4.39-2.65,7.73-2.65s5.91,0.91,7.73,2.73s2.73,3.99,2.73,6.52v80.61c0,1.11,0.23,2.02,0.68,2.73
				c0.45,0.71,1.19,1.57,2.2,2.58c1.41,1.42,2.12,3.13,2.12,5.15c0,3.03-1.06,5.33-3.18,6.89c-2.12,1.57-4.34,2.35-6.67,2.35
				c-1.92,0-3.64-0.53-5.15-1.59s-2.83-2.45-3.94-4.17c-3.74,2.02-7.27,3.64-10.61,4.85c-3.33,1.21-6.92,1.82-10.76,1.82
				c-8.79,0-15.61-2.73-20.46-8.18s-7.27-12.63-7.27-21.52v-17.12c0-4.55,0.48-8.71,1.44-12.5c0.96-3.79,2.58-7.1,4.85-9.93
				c2.27-2.83,5.23-5.02,8.86-6.59C154.37,110.83,158.92,110.05,164.37,110.05z M177.71,164.6v-35.31
				c-4.55-1.31-8.23-1.97-11.06-1.97c-3.74,0-6.36,1.16-7.88,3.49c-1.52,2.33-2.27,5.86-2.27,10.61v17.12
				c0,8.08,3.28,12.12,9.85,12.12c3.13,0,7.02-1.06,11.67-3.18c-0.1-0.5-0.18-0.98-0.23-1.44
				C177.73,165.58,177.71,165.1,177.71,164.6z"/>
			<path class="st0" d="M243.62,89.59c0,2.93-1.14,5.43-3.41,7.5c-2.27,2.07-5.08,3.11-8.41,3.11s-6.14-1.03-8.41-3.11
				c-2.27-2.07-3.41-4.57-3.41-7.5c0-2.93,1.14-5.43,3.41-7.5c2.27-2.07,5.08-3.11,8.41-3.11s6.14,1.04,8.41,3.11
				C242.49,84.16,243.62,86.66,243.62,89.59z M242.26,119.14v59.7c0,2.63-1.01,4.85-3.03,6.67c-2.02,1.82-4.5,2.73-7.42,2.73
				c-2.93,0-5.41-0.91-7.42-2.73c-2.02-1.82-3.03-4.04-3.03-6.67v-59.7c0-2.52,1.01-4.7,3.03-6.52c2.02-1.82,4.49-2.73,7.42-2.73
				c2.93,0,5.4,0.91,7.42,2.73C241.25,114.44,242.26,116.62,242.26,119.14z"/>
			<path class="st0" d="M297.72,188.08c-2.02,0-4.04-0.18-6.06-0.53c-2.02-0.36-4.39-1.19-7.12-2.5v25c0,2.63-0.91,4.82-2.73,6.59
				c-1.82,1.77-4.39,2.65-7.73,2.65s-5.91-0.91-7.73-2.73s-2.73-3.99-2.73-6.52v-76.98c0-1.72-0.13-3.11-0.38-4.17
				c-0.25-1.06-0.68-2.05-1.29-2.96c-0.61-0.81-1.11-1.54-1.52-2.2c-0.4-0.66-0.61-1.54-0.61-2.65c0-2.83,1.06-5.08,3.18-6.74
				s4.39-2.5,6.82-2.5c1.61,0,3.05,0.38,4.32,1.14c1.26,0.76,2.45,1.79,3.56,3.11c3.64-2.02,7.1-3.64,10.38-4.85
				c3.28-1.21,6.94-1.82,10.99-1.82c4.34,0,8.23,0.73,11.67,2.2c3.43,1.46,6.31,3.49,8.64,6.06c2.32,2.58,4.12,5.68,5.38,9.32
				c1.26,3.64,1.89,7.68,1.89,12.12v17.58c0,4.45-0.48,8.59-1.44,12.42c-0.96,3.84-2.58,7.15-4.85,9.93
				c-2.27,2.78-5.25,4.98-8.94,6.59C307.74,187.28,303.17,188.08,297.72,188.08z M284.53,133.08v35.76
				c4.34,1.31,8.03,1.97,11.06,1.97c3.74,0,6.36-1.14,7.88-3.41c1.52-2.27,2.27-5.83,2.27-10.68v-17.58
				c0-8.08-3.28-12.12-9.85-12.12c-3.03,0-6.92,1.06-11.67,3.18c0.1,0.51,0.18,0.98,0.23,1.44
				C284.51,132.09,284.53,132.58,284.53,133.08z"/>
			<path class="st0" d="M366.81,89.59c0,2.93-1.14,5.43-3.41,7.5c-2.27,2.07-5.08,3.11-8.41,3.11c-3.33,0-6.14-1.03-8.41-3.11
				c-2.27-2.07-3.41-4.57-3.41-7.5c0-2.93,1.14-5.43,3.41-7.5c2.27-2.07,5.08-3.11,8.41-3.11c3.33,0,6.14,1.04,8.41,3.11
				C365.68,84.16,366.81,86.66,366.81,89.59z M365.45,119.14v59.7c0,2.63-1.01,4.85-3.03,6.67c-2.02,1.82-4.5,2.73-7.42,2.73
				c-2.93,0-5.41-0.91-7.43-2.73c-2.02-1.82-3.03-4.04-3.03-6.67v-59.7c0-2.52,1.01-4.7,3.03-6.52c2.02-1.82,4.49-2.73,7.43-2.73
				c2.93,0,5.4,0.91,7.42,2.73C364.44,114.44,365.45,116.62,365.45,119.14z"/>
			<path class="st0" d="M407.72,133.08v45.76c0,2.63-0.86,4.83-2.58,6.59c-1.72,1.77-4.34,2.65-7.88,2.65
				c-3.54,0-6.16-0.89-7.88-2.65c-1.72-1.77-2.58-3.96-2.58-6.59v-45.91c0-2.52-0.13-4.09-0.38-4.7c-0.25-0.61-0.53-1.16-0.83-1.67
				c-1.11-1.41-1.82-2.5-2.12-3.26c-0.3-0.76-0.45-1.64-0.45-2.65c0-2.52,0.96-4.62,2.88-6.29c1.92-1.67,4.34-2.5,7.27-2.5
				c3.03,0,5.71,1.47,8.03,4.39c3.43-2.32,6.87-3.99,10.3-5c3.43-1.01,6.67-1.52,9.7-1.52c9.6,0,16.77,2.7,21.52,8.11
				c4.75,5.41,7.12,12.55,7.12,21.44v39.55c0,2.63-0.91,4.83-2.73,6.59c-1.82,1.77-4.39,2.65-7.73,2.65c-3.33,0-5.91-0.89-7.73-2.65
				c-1.82-1.77-2.73-3.96-2.73-6.59v-39.55c0-3.84-0.88-6.84-2.65-9.02c-1.77-2.17-4.17-3.26-7.2-3.26c-3.03,0-6.92,1.06-11.67,3.18
				c0.1,0.51,0.17,0.98,0.23,1.44C407.7,132.09,407.72,132.58,407.72,133.08z"/>
			<path class="st0" d="M469.55,155.66V96.86c0-2.63,0.91-4.82,2.73-6.59c1.82-1.77,4.39-2.65,7.73-2.65s5.91,0.91,7.73,2.73
				s2.73,3.99,2.73,6.52v16.82h11.21c2.83,0,5.2,0.86,7.12,2.58c1.92,1.72,2.88,3.89,2.88,6.52c0,2.63-0.96,4.77-2.88,6.44
				c-1.92,1.67-4.29,2.5-7.12,2.5h-11.21v22.88c0,5.56,0.45,9.47,1.36,11.74c0.91,2.27,3.18,3.41,6.82,3.41
				c0.71,0,1.26-0.02,1.67-0.08c0.4-0.05,0.71-0.08,0.91-0.08c4.85,0,8.13,0.66,9.85,1.97c1.72,1.31,2.58,3.39,2.58,6.21
				c0,2.22-0.41,3.99-1.21,5.3c-0.81,1.31-1.89,2.32-3.26,3.03c-1.36,0.71-2.91,1.16-4.62,1.36c-1.72,0.2-3.54,0.3-5.46,0.3
				c-5.86,0-10.71-0.71-14.55-2.12c-3.84-1.41-6.87-3.48-9.09-6.21c-2.22-2.73-3.76-6.08-4.62-10.08
				C469.98,165.38,469.55,160.81,469.55,155.66z"/>
			<path class="st0" d="M585.47,140.81v28.18c0,2.22,0.48,3.51,1.44,3.86c0.96,0.35,2.09,0.78,3.41,1.29
				c2.32,0.91,3.49,2.83,3.49,5.76c0,2.42-0.81,4.34-2.42,5.76c-1.62,1.42-4.45,2.12-8.49,2.12c-2.83,0-5.25-0.46-7.27-1.36
				c-2.02-0.91-3.89-2.58-5.61-5c-2.83,2.33-5.89,4.04-9.17,5.15c-3.28,1.11-7.05,1.67-11.29,1.67c-8.89,0-15.61-2.17-20.15-6.52
				c-4.55-4.34-6.82-10.15-6.82-17.43v-0.46c0-15.46,10-23.18,30-23.18c2.02,0,4.02,0.1,5.99,0.3c1.97,0.2,3.96,0.61,5.99,1.21
				v-4.85c0-6.97-3.84-10.46-11.52-10.46c-2.12,0-3.92,0.23-5.38,0.68c-1.47,0.46-2.96,1.04-4.47,1.74
				c-0.61,0.2-1.36,0.51-2.27,0.91c-0.91,0.4-2.07,0.61-3.49,0.61c-3.23,0-5.51-0.98-6.82-2.95c-1.31-1.97-1.97-3.91-1.97-5.83
				c0-2.22,0.76-4.14,2.27-5.76c1.52-1.61,3.51-2.93,5.99-3.94c2.47-1.01,5.25-1.74,8.33-2.2c3.08-0.45,6.19-0.68,9.32-0.68
				c11.01,0,18.92,2.65,23.71,7.96C583.07,122.7,585.47,130.5,585.47,140.81z M553.8,155.35c-4.34,0-7.17,0.86-8.49,2.58
				c-1.31,1.72-1.97,3.74-1.97,6.06v0.45c0,2.53,0.76,4.32,2.27,5.38c1.52,1.06,3.89,1.59,7.12,1.59c2.02,0,3.99-0.28,5.91-0.83
				c1.92-0.55,3.89-1.59,5.91-3.11v-10.91C560.51,155.76,556.93,155.35,553.8,155.35z"/>
			<path class="st0" d="M641.68,128.69c-3.23-0.2-5.81-0.28-7.73-0.23c-1.92,0.05-4.19,0.63-6.82,1.74c0.1,0.51,0.17,0.98,0.23,1.44
				c0.05,0.45,0.08,0.93,0.08,1.44v45.76c0,2.63-1.01,4.85-3.03,6.67c-2.02,1.82-4.5,2.73-7.42,2.73c-2.93,0-5.41-0.91-7.43-2.73
				c-2.02-1.82-3.03-4.04-3.03-6.67v-45.76c0-1.72-0.13-3.11-0.38-4.17c-0.25-1.06-0.68-2.05-1.29-2.96
				c-0.61-0.81-1.11-1.57-1.51-2.27c-0.41-0.71-0.61-1.61-0.61-2.73c0-2.73,1.03-4.92,3.11-6.59c2.07-1.67,4.47-2.5,7.2-2.5
				c1.62,0,3.08,0.43,4.39,1.29c1.31,0.86,2.52,2,3.64,3.41c3.54-2.02,6.94-3.61,10.23-4.77c3.28-1.16,6.14-1.74,8.56-1.74
				c4.85,0,8.13,0.86,9.85,2.58c1.72,1.72,2.58,3.89,2.58,6.52c0,2.93-1.04,5.3-3.11,7.12
				C647.11,128.08,644.61,128.89,641.68,128.69z"/>
		</g>
	</g>
	<g>
		<g>
			<path class="st1" d="M355.08,62.87c-4.6,0-8.33-3.73-8.33-8.33V8.33c0-4.61,3.73-8.33,8.33-8.33c4.6,0,8.33,3.73,8.33,8.33v46.2
				C363.41,59.14,359.68,62.87,355.08,62.87z"/>
		</g>
		<g>
			<path class="st1" d="M397.75,84.71c-2.52,0-5-1.13-6.64-3.3c-2.78-3.66-2.07-8.89,1.59-11.67l36.79-27.94
				c3.68-2.79,8.89-2.07,11.68,1.59c2.78,3.66,2.07,8.89-1.59,11.67l-36.79,27.94C401.27,84.16,399.5,84.71,397.75,84.71z"/>
		</g>
		<g>
			<path class="st1" d="M312.41,84.71c-1.75,0-3.52-0.55-5.03-1.7l-36.79-27.94c-3.66-2.78-4.38-8.01-1.59-11.67
				c2.78-3.67,8.01-4.38,11.68-1.59l36.79,27.94c3.66,2.78,4.38,8.01,1.59,11.67C317.42,83.58,314.93,84.71,312.41,84.71z"/>
		</g>
	</g>
</g>
</svg>
