<svg xmlns="http://www.w3.org/2000/svg" width="213" height="117" viewBox="0 0 213 117">
  <g id="service" transform="translate(-1314 -1429)">
    <g id="authentication" transform="translate(1165.948 1429)">
      <g id="Group_89" data-name="Group 89" transform="translate(216.585 2.455)">
        <path id="Path_378" data-name="Path 378" d="M265.235,100.539l-7.588-3.308a49.54,49.54,0,0,1-29.741-45.411V23.564a2.067,2.067,0,0,1,1.778-2.047l6.952-.982a53.541,53.541,0,0,0,25.084-10.52L264.089,8.2a3.431,3.431,0,0,1,4.175,0l2.369,1.816a53.543,53.543,0,0,0,25.084,10.52l6.952.982a2.067,2.067,0,0,1,1.778,2.047V51.819A49.54,49.54,0,0,1,274.706,97.23l-7.588,3.308A2.357,2.357,0,0,1,265.235,100.539Z" transform="translate(-227.906 -7.491)" fill="#5b448a"/>
        <circle id="Ellipse_196" data-name="Ellipse 196" cx="26.89" cy="26.89" r="26.89" transform="translate(11.381 19.049)" fill="#5b448a"/>
      </g>
      <g id="Group_90" data-name="Group 90" transform="translate(214.127 0)">
        <path id="Path_380" data-name="Path 380" d="M299.406,29.654a2.458,2.458,0,0,0,2.458-2.458V18.528a4.547,4.547,0,0,0-3.893-4.481l-6.952-.982A51.178,51.178,0,0,1,267.087,3.028l-2.37-1.817a5.9,5.9,0,0,0-7.165,0l-2.37,1.816a51.18,51.18,0,0,1-23.932,10.037l-6.953.982a4.547,4.547,0,0,0-3.893,4.481V46.783a51.989,51.989,0,0,0,31.217,47.665l8.53,3.719a2.457,2.457,0,0,0,1.964,0l8.53-3.719a51.988,51.988,0,0,0,31.217-47.665V37.671a2.458,2.458,0,0,0-4.916,0v9.112a47.073,47.073,0,0,1-28.265,43.159l-7.548,3.29-7.547-3.29a47.073,47.073,0,0,1-28.265-43.159V18.867l6.616-.934a56.105,56.105,0,0,0,26.235-11l2.369-1.816a.977.977,0,0,1,1.184,0L264.1,6.929a56.1,56.1,0,0,0,26.235,11l6.616.934V27.2a2.458,2.458,0,0,0,2.458,2.458Z" transform="translate(-220.406 0)" fill="#5b448a"/>
        <path id="Path_381" data-name="Path 381" d="M260.5,75.059a2.458,2.458,0,0,0-3.2,1.35,29.372,29.372,0,1,0,6.3-9.561,2.458,2.458,0,0,0,3.5,3.454,24.4,24.4,0,1,1-5.249,7.96,2.457,2.457,0,0,0-1.35-3.2Z" transform="translate(-243.751 -39.068)" fill="#fff"/>
        <path id="Path_382" data-name="Path 382" d="M315.954,133.242a2.459,2.459,0,0,0,1.535.539,2.5,2.5,0,0,0,.3-.019,2.459,2.459,0,0,0,1.656-.956l15.582-20.6a2.458,2.458,0,0,0-3.921-2.966l-14.059,18.586-3.31-2.648a2.458,2.458,0,0,0-3.071,3.839Z" transform="translate(-280.468 -72.783)" fill="#fff"/>
      </g>
    </g>
    <ellipse id="Ellipse_197" data-name="Ellipse 197" cx="106.5" cy="18" rx="106.5" ry="18" transform="translate(1314 1510)" fill="#6c63ff" opacity="0.1"/>
  </g>
</svg>
