<svg width="109" height="109" viewBox="0 0 109 109" fill="none" xmlns="http://www.w3.org/2000/svg">
<path d="M73.8267 66.69C73.4828 66.2389 72.8379 66.1521 72.387 66.4966C71.9359 66.8408 71.8494 67.4855 72.1935 67.9366C74.1881 70.55 75.2422 73.6738 75.2422 76.9707V86.9455H69.1351V78.9403C69.1351 78.3729 68.6752 77.9129 68.1078 77.9129C67.5404 77.9129 67.0805 78.3729 67.0805 78.9403V86.9454H44.1394V78.9403C44.1394 78.3729 43.6794 77.9129 43.1121 77.9129C42.5447 77.9129 42.0847 78.3729 42.0847 78.9403V86.9454H35.9777V83.2005C35.9777 82.6332 35.5177 82.1732 34.9504 82.1732C34.383 82.1732 33.923 82.6332 33.923 83.2005V87.9727C33.923 88.5401 34.383 89 34.9504 89H76.2695C76.8369 89 77.2968 88.5401 77.2968 87.9727V76.9705C77.2968 73.2195 76.0968 69.6646 73.8267 66.69Z" fill="#654794"/>
<path d="M37.2675 45.2555C37.0274 45.8622 36.894 46.5223 36.894 47.2133C36.894 50.1573 39.289 52.5523 42.233 52.5523C42.2807 52.5523 42.3285 52.55 42.3762 52.5486C43.4615 55.7737 45.6951 58.4754 48.5883 60.1664C40.3179 61.29 33.9229 68.3969 33.9229 76.9704V79.0912C33.9229 79.6586 34.3828 80.1185 34.9502 80.1185C35.5176 80.1185 35.9775 79.6586 35.9775 79.0912V76.9704C35.9775 68.9677 42.3174 62.4189 50.2384 62.0801L52.1499 67.002L49.9934 78.8216C49.9332 79.1516 50.038 79.4903 50.2739 79.7287L54.8799 84.3811C55.2631 84.7839 55.9571 84.7839 56.34 84.3811L60.9451 79.7287C61.1812 79.4904 61.2858 79.1516 61.2257 78.8217L59.0691 67.0021L60.9808 62.0791C64.0916 62.2093 67.0203 63.2825 69.4869 65.2034C69.9344 65.5521 70.58 65.4718 70.9286 65.0242C71.2772 64.5766 71.197 63.9311 70.7493 63.5825C68.3594 61.7212 65.5878 60.5615 62.6329 60.1656C65.5255 58.4745 67.7584 55.7731 68.8435 52.5486C68.8912 52.5498 68.9389 52.5523 68.9868 52.5523C71.9307 52.5523 74.3258 50.1573 74.3258 47.2133C74.3258 46.5229 74.1926 45.8635 73.9529 45.2573C76.3023 35.8958 75.6843 29.1391 72.1108 25.1753C68.6863 21.3767 63.7124 21.4512 62.1819 21.5772C60.7902 20.555 55.6341 17.4324 47.3533 19.9721C46.3646 20.2752 45.4226 20.6348 44.5536 21.0405C44.0396 21.2807 43.8175 21.892 44.0576 22.4061C44.2977 22.9201 44.909 23.1423 45.423 22.9021C46.2057 22.5365 47.0578 22.2115 47.9556 21.9363C51.4973 20.8504 54.8006 20.7681 57.7736 21.6923C59.9899 22.3812 61.1871 23.4052 61.1954 23.4123C61.4225 23.6132 61.7266 23.7034 62.0274 23.6587C62.0793 23.6509 67.3102 22.9188 70.5847 26.5508C71.9603 28.0765 72.8219 30.1884 73.146 32.8276C73.4927 35.6506 73.2255 39.0916 72.3557 43.0751C71.5776 42.4406 70.6182 42.0207 69.5682 41.9065V38.2868C69.5682 37.8429 69.2832 37.4492 68.8614 37.3107C68.8127 37.2949 63.97 35.6406 61.5695 29.2966C61.437 28.9464 61.1246 28.6961 60.7541 28.6432C60.3828 28.5904 60.0134 28.743 59.7882 29.042C54.8045 35.6571 42.6915 37.0266 42.5701 37.0396C42.0477 37.0951 41.6514 37.5359 41.6514 38.0612V41.9067C40.6093 42.02 39.6568 42.4346 38.882 43.061C38.3352 40.3418 38.1237 37.826 38.2544 35.5607C38.2707 35.279 38.1705 35.0031 37.977 34.7976C37.7836 34.5921 37.5144 34.4752 37.2321 34.4742C35.5995 34.469 34.4624 33.9606 33.7572 33.4878C35.6865 32.2266 37.0345 30.5724 38.3458 28.9637C39.4562 27.601 40.6046 26.192 42.1407 24.9473C42.5816 24.59 42.6493 23.9431 42.292 23.5023C41.9349 23.0616 41.288 22.9936 40.8472 23.3509C39.1461 24.7293 37.9296 26.222 36.7531 27.6657C35.1779 29.5987 33.8171 31.2682 31.5718 32.3736C31.0105 32.6333 30.819 33.407 31.194 33.8987C31.2646 33.9957 32.8154 36.0792 36.1661 36.4671C36.123 39.139 36.4934 42.0888 37.2675 45.2555V45.2555ZM58.7821 62.0655L57.3032 65.8736H53.9156L52.4367 62.0655H58.7821ZM55.6099 82.1983L52.1108 78.6638L54.0694 67.9282H57.1494L59.1082 78.6639L55.6099 82.1983ZM55.6099 60.0108C49.8526 60.0108 45.0372 55.9023 43.9407 50.4631C45.044 51.3843 46.4626 51.9397 48.0089 51.9397C51.1645 51.9397 53.7892 49.6282 54.282 46.6097H56.9379C57.4306 49.6282 60.0553 51.9397 63.211 51.9397C64.7572 51.9397 66.1758 51.3842 67.2792 50.4631C66.1827 55.9023 61.3673 60.0108 55.6099 60.0108V60.0108ZM43.7061 45.5824C43.7061 43.2098 45.6363 41.2796 48.0089 41.2796C50.3814 41.2796 52.3116 43.2098 52.3116 45.5824C52.3116 47.9549 50.3814 49.885 48.0089 49.885C45.6364 49.8852 43.7061 47.955 43.7061 45.5824ZM63.211 49.8852C60.8385 49.8852 58.9083 47.955 58.9083 45.5825C58.9083 43.2099 60.8385 41.2797 63.211 41.2797C65.5836 41.2797 67.5138 43.2099 67.5138 45.5825C67.5138 47.955 65.5834 49.8852 63.211 49.8852ZM72.2713 47.2134C72.2713 48.896 70.9993 50.2863 69.3664 50.4753C69.4986 49.7053 69.5684 48.9142 69.5684 48.1072V43.9817C71.1028 44.257 72.2713 45.6008 72.2713 47.2134V47.2134ZM60.3176 31.5826C62.5898 36.2758 66.0354 38.291 67.5136 38.9741V40.9077C66.3805 39.864 64.8691 39.2251 63.2108 39.2251C60.0552 39.2251 57.4303 41.5366 56.9377 44.5552H54.2818C53.7893 41.5366 51.1644 39.2251 48.0088 39.2251C46.3505 39.2251 44.8391 39.864 43.706 40.9077V38.9607C46.5652 38.531 55.2915 36.832 60.3176 31.5826V31.5826ZM41.6515 43.9815V48.107C41.6515 48.9141 41.7212 49.7051 41.8534 50.4751C40.2206 50.2863 38.9486 48.8959 38.9486 47.2133C38.9486 45.6008 40.1171 44.257 41.6515 43.9815V43.9815Z" fill="#654794"/>
<path d="M58.8305 51.2194C58.3056 51.0034 57.7054 51.2536 57.4894 51.7782C57.486 51.7868 57.091 52.6451 55.6101 52.6451C54.129 52.6451 53.7342 51.7868 53.7307 51.7782C53.5147 51.2536 52.9145 51.0034 52.3897 51.2194C51.8651 51.4354 51.6149 52.0359 51.8308 52.5605C52.1579 53.3551 53.3221 54.6997 55.6101 54.6997C57.8981 54.6997 59.0622 53.355 59.3894 52.5605C59.6051 52.0358 59.3551 51.4354 58.8305 51.2194V51.2194Z" fill="#654794"/>
<path d="M49.3441 48.0592C49.9115 48.0592 50.3714 47.5992 50.3714 47.0319V44.1329C50.3714 43.5655 49.9115 43.1056 49.3441 43.1056C48.7767 43.1056 48.3168 43.5655 48.3168 44.1329V47.0319C48.3168 47.5992 48.7766 48.0592 49.3441 48.0592Z" fill="#654794"/>
<path d="M61.8759 43.1056C61.3085 43.1056 60.8486 43.5655 60.8486 44.1329V47.0319C60.8486 47.5992 61.3085 48.0592 61.8759 48.0592C62.4433 48.0592 62.9032 47.5992 62.9032 47.0319V44.1329C62.9032 43.5655 62.4433 43.1056 61.8759 43.1056Z" fill="#654794"/>
<circle cx="54.5" cy="54.5" r="53.5" stroke="#654794" stroke-width="2"/>
</svg>
