<svg width="109" height="109" viewBox="0 0 109 109" fill="none" xmlns="http://www.w3.org/2000/svg">
<circle cx="54.5" cy="54.5" r="53.5" stroke="#654794" stroke-width="2"/>
<path d="M72.9607 67.9824L61.9002 63.4575C60.6787 62.9583 59.8906 61.7832 59.8906 60.4635V59.6894C63.208 57.3973 65.7416 54.163 67.1777 50.4219H67.4375C70.4099 50.4219 72.8281 48.0036 72.8281 45.0312V35.7626C72.8281 30.3612 70.4088 25.3274 66.1912 21.9518C63.0668 19.4538 59.1446 18.0781 55.1436 18.0781H51.4554C44.8896 18.0781 38.8661 21.3847 35.3417 26.9231L32.5386 31.3283L33.6663 32.0776C35.235 33.1234 36.1719 34.8742 36.1719 36.761V45.0312C36.1719 48.0036 38.5901 50.4219 41.5625 50.4219H41.8223C43.2584 54.164 45.792 57.3973 49.1094 59.6894V60.4635C49.1094 61.7832 48.3213 62.9572 47.0997 63.4564L36.0393 67.9813C29.5705 70.6281 25.3906 76.8553 25.3906 83.8438V84.9219H83.6094V83.8438C83.6094 76.8553 79.4295 70.6281 72.9607 67.9824ZM64.1104 71.5143L59.7278 74.8015L62.6323 66.087L63.2457 66.3382L64.1104 71.5143ZM45.7532 66.3382L46.3666 66.087L49.2711 74.8015L44.8885 71.5143L45.7532 66.3382ZM49.3821 75.1347L51.9265 82.7656H51.712L47.2625 78.3162L49.3821 75.1347ZM48.3547 65.2353C48.5132 65.1534 48.6684 65.066 48.8161 64.9701L54.5 71.4658L60.1839 64.9701C60.3316 65.066 60.4868 65.1523 60.6453 65.2353L54.8019 82.7656H54.1981L48.3547 65.2353ZM59.6179 75.1347L61.7375 78.3162L57.288 82.7656H57.0735L59.6179 75.1347ZM59.8906 38.5625C58.3015 38.5625 56.9258 39.4358 56.1776 40.7188H52.8224C52.0742 39.4358 50.6985 38.5625 49.1094 38.5625H42.6406V33.1924C45.6594 33.3163 48.5908 34.002 51.367 35.2365C54.7253 36.7275 58.2918 37.4844 61.966 37.4844H66.3594V38.5625H59.8906ZM64.2031 40.7188V42.875C64.2031 44.0642 63.236 45.0312 62.0469 45.0312H59.8906C58.7015 45.0312 57.7344 44.0642 57.7344 42.875C57.7344 41.6858 58.7015 40.7188 59.8906 40.7188H64.2031ZM51.2656 42.875C51.2656 44.0642 50.2985 45.0312 49.1094 45.0312H46.9531C45.764 45.0312 44.7969 44.0642 44.7969 42.875V40.7188H49.1094C50.2985 40.7188 51.2656 41.6858 51.2656 42.875ZM67.8838 48.2203C68.2925 46.6226 68.5156 44.959 68.5156 43.2534V41.9963C69.7673 42.4427 70.6719 43.6286 70.6719 45.0323C70.6719 46.6625 69.4547 48.0004 67.8838 48.2203ZM35.4722 30.7342L37.1605 28.081C40.2871 23.168 45.6303 20.2344 51.4554 20.2344H55.1436C58.6573 20.2344 62.1019 21.443 64.8435 23.6369C68.5469 26.5996 70.6719 31.0199 70.6719 35.7626V40.7457C70.0423 40.2692 69.3167 39.9123 68.5156 39.7495V35.3281H61.966C58.5947 35.3281 55.3237 34.6338 52.2424 33.2646C48.884 31.7725 45.3176 31.0156 41.5625 31.0156H40.4844V39.7495C39.6833 39.9134 38.9577 40.2692 38.3281 40.7457V36.761C38.3281 34.4074 37.2726 32.2059 35.4722 30.7342V30.7342ZM38.3281 45.0312C38.3281 43.6275 39.2327 42.4416 40.4844 41.9953V43.2523C40.4844 44.9579 40.7075 46.6226 41.1162 48.2203C39.5453 48.0004 38.3281 46.6625 38.3281 45.0312V45.0312ZM42.6406 43.2534V42.875C42.6406 45.2533 44.5748 47.1875 46.9531 47.1875H49.1094C51.4877 47.1875 53.4219 45.2533 53.4219 42.875H55.5781C55.5781 45.2533 57.5123 47.1875 59.8906 47.1875H62.0469C64.4252 47.1875 66.3594 45.2533 66.3594 42.875V43.2534C66.3594 50.8251 61.6092 57.5353 54.5 60.0635C47.3908 57.5353 42.6406 50.8251 42.6406 43.2534V43.2534ZM54.1593 62.2252L54.5 62.3395L54.8407 62.2263C55.8617 61.8856 56.8406 61.4694 57.7721 60.9843C57.8584 61.8845 58.1527 62.7341 58.6389 63.4607L54.5 68.1905L50.36 63.4596C50.8452 62.733 51.1406 61.8834 51.2268 60.9832C52.1583 61.4683 53.1383 61.8856 54.1593 62.2252V62.2252ZM36.8565 69.9791L43.4072 67.2988L42.5479 72.4544L46.5682 75.47L44.4864 78.5911L48.663 82.7656H38.3281V76.2969H36.1719V82.7656H27.5846C27.9867 77.1001 31.5359 72.1547 36.8565 69.9791V69.9791ZM72.8281 82.7656V76.2969H70.6719V82.7656H60.337L64.5125 78.59L62.4307 75.4689L66.451 72.4534L65.5917 67.2978L72.1424 69.978C77.463 72.1547 81.0122 77.099 81.4143 82.7645H72.8281V82.7656Z" fill="#654794"/>
<path d="M58.8125 51.5H56.6562C56.6562 52.6892 55.6892 53.6562 54.5 53.6562C53.3108 53.6562 52.3438 52.6892 52.3438 51.5H50.1875C50.1875 53.8783 52.1217 55.8125 54.5 55.8125C56.8783 55.8125 58.8125 53.8783 58.8125 51.5Z" fill="#654794"/>
<path d="M62.1493 27.0028C63.0344 27.7122 63.8021 28.5413 64.4306 29.4653L66.2138 28.2524C65.4645 27.1505 64.5503 26.1641 63.497 25.3199C61.1337 23.431 58.1667 22.3906 55.1436 22.3906H53.4219V24.5469H55.1436C57.6794 24.5469 60.1688 25.4202 62.1493 27.0028V27.0028Z" fill="#654794"/>
<path d="M66.1114 33.3983L68.2191 32.9455C68.0466 32.1423 67.7997 31.352 67.486 30.6006L65.4958 31.4307C65.7589 32.0614 65.9659 32.7234 66.1114 33.3983V33.3983Z" fill="#654794"/>
</svg>
