<svg xmlns="http://www.w3.org/2000/svg" width="38" height="37" viewBox="0 0 38 37">
  <g id="tw-circle" transform="translate(-428 -2676)">
    <g id="Ellipse_201" data-name="Ellipse 201" transform="translate(428 2676)" fill="none" stroke="#4d4d4d" stroke-width="1">
      <ellipse cx="19" cy="18.5" rx="19" ry="18.5" stroke="none"/>
      <ellipse cx="19" cy="18.5" rx="18.5" ry="18" fill="none"/>
    </g>
    <path id="twitter" d="M13.777,51.119c.01.133.01.267.01.4a8.786,8.786,0,0,1-8.954,8.749A9.045,9.045,0,0,1,0,58.888a6.662,6.662,0,0,0,.76.038,6.4,6.4,0,0,0,3.907-1.314,3.144,3.144,0,0,1-2.942-2.133,4.059,4.059,0,0,0,.594.048,3.4,3.4,0,0,0,.828-.1A3.094,3.094,0,0,1,.624,52.4v-.038a3.226,3.226,0,0,0,1.422.39A3.055,3.055,0,0,1,.643,50.2a3,3,0,0,1,.429-1.552,9.016,9.016,0,0,0,6.489,3.218,3.4,3.4,0,0,1-.078-.7,3.11,3.11,0,0,1,3.147-3.075,3.174,3.174,0,0,1,2.3.971,6.285,6.285,0,0,0,2-.743,3.081,3.081,0,0,1-1.384,1.695,6.426,6.426,0,0,0,1.812-.476A6.683,6.683,0,0,1,13.777,51.119Z" transform="translate(439.327 2640.003)" fill="#4d4d4d" stroke="#fff" stroke-width="1"/>
  </g>
</svg>
